<svg width="220" height="12" viewBox="0 0 220 12" fill="none" xmlns="http://www.w3.org/2000/svg">
<g clip-path="url(#clip0_1_149)">
<path d="M199.39 0.484393C199.521 0.595411 199.74 0.484401 199.888 0.272459C200.071 0.534864 200.229 0.161423 200.298 0.221978C200.552 0.47429 200.718 0.444013 200.988 0.221978C201.058 0.161423 201.39 0.474309 201.626 0.524772H201.801C202.031 0.437314 202.275 0.406382 202.517 0.433943L203.722 0.686255L203.975 0.454117C204 0.441308 204.027 0.434682 204.054 0.434682C204.081 0.434682 204.107 0.441308 204.132 0.454117C204.409 0.60907 204.703 0.71782 205.006 0.777084H205.241C205.468 0.595419 205.634 0.777082 205.599 1.08995L206.062 0.676153L206.446 0.333011C206.811 0.492154 207.207 0.534003 207.59 0.454117C207.844 0.353191 208.603 0.807341 208.874 0.787156C209.366 0.859849 209.851 0.981426 210.324 1.1505V0.766982C210.383 0.719576 210.453 0.694844 210.525 0.696327L210.874 0.958742C211.231 0.866055 211.603 0.904868 211.939 1.06975C212.088 1.21104 212.647 0.908269 212.813 0.978916C213.091 1.10093 213.394 1.12895 213.686 1.05967C214.265 0.971402 214.851 0.954468 215.433 1.00919L215.93 1.24133C216.088 1.32207 216.393 1.08995 216.647 1.05967H216.83C217.009 1.12818 217.201 1.12818 217.38 1.05967L217.834 1.48354C218.376 1.26151 218.882 1.30188 218.961 1.58447C219.039 1.86706 219.467 2.52308 219.581 2.5029C219.694 2.48271 219.982 2.5029 220 2.57355C220.017 2.6442 219.895 2.93688 219.712 3.0479C219.528 3.15892 219.52 4.05715 219.231 4.50122L219.328 5.07647V5.20768C219.328 5.40953 219.249 5.53065 219.17 5.4701C219.118 5.43035 219.054 5.41552 218.992 5.42867C218.93 5.44183 218.875 5.48196 218.838 5.54075C219.336 5.77288 218.751 6.1564 218.987 6.4289C219.002 6.45038 219.01 6.47706 219.01 6.50457C219.01 6.53209 219.002 6.5588 218.987 6.58028L218.611 6.9638C218.611 7.25648 218.192 7.56933 217.738 7.67026L217.31 7.29684L217.24 7.23629C216.921 7.37964 216.586 7.46806 216.245 7.4987C215.974 7.4987 215.075 7.42806 214.821 7.4987H214.358C214.151 7.45041 213.941 7.4167 213.73 7.39777C213.518 7.37773 213.304 7.37773 213.092 7.39777C212.555 7.45905 212.016 7.48599 211.477 7.4785C210.848 7.4785 208.857 7.47852 208.534 7.40787C208.055 7.45517 207.581 7.55657 207.119 7.71064H207.04H206.569C206.12 7.6115 205.66 7.59449 205.206 7.66019C204.971 7.73083 204.202 7.51888 204.01 7.54915C203.633 7.59506 203.252 7.59506 202.875 7.54915C202.639 7.4886 201.495 7.6198 200.936 7.63998H198.892C198.569 7.63998 198.08 7.751 197.976 7.63998C197.748 7.31702 197.434 7.77118 197.268 7.4785C197.268 7.42804 197.041 7.42804 196.936 7.4785C196.831 7.52896 196.351 7.70055 196.255 7.61981L195.915 7.32712C195.806 7.42497 195.68 7.49602 195.547 7.53594C195.413 7.57586 195.274 7.58381 195.137 7.55926C194.963 7.47852 194.587 7.43814 194.386 7.3675C194.185 7.29685 193.513 7.56934 193.373 7.45832C193.234 7.34731 192.579 7.72072 192.386 7.76109C191.946 7.66767 191.511 7.53952 191.085 7.37757L190.692 7.65008L190.421 7.85192C190.015 7.79141 189.613 7.70039 189.216 7.57943C188.929 7.495 188.637 7.43096 188.343 7.38767C187.708 7.51488 187.089 7.73183 186.5 8.03361L186.16 7.4785C186.106 7.45095 186.048 7.43673 185.99 7.43673C185.931 7.43673 185.873 7.45095 185.819 7.4785C185.444 7.82164 185.016 7.24639 184.632 7.55926C184.47 7.66401 184.283 7.70643 184.099 7.68036C183.782 7.59769 183.461 7.53369 183.138 7.4886H182.85C182.567 7.58523 182.272 7.63283 181.977 7.62988C181.657 7.62116 181.339 7.58064 181.025 7.50877C180.868 7.42803 180.291 7.73083 180.099 7.81157C179.907 7.89231 179.392 7.54915 179.226 7.63998C178.774 7.7085 178.316 7.7085 177.864 7.63998H177.506C177.209 7.63998 176.912 7.75101 176.632 7.74091H176.082C175.36 7.65575 174.634 7.61532 173.908 7.61981L173.41 7.78129L172.973 7.92257C172.397 7.80018 171.812 7.74607 171.227 7.76109H166.502C166.03 7.76109 165.55 7.76109 165.079 7.76109H164.79L164.1 7.93267C164.039 7.93267 163.603 7.87212 163.227 7.81157C162.852 7.75101 160.869 7.91249 160.721 7.81157C160.492 7.77597 160.262 7.75576 160.031 7.75102C159.882 7.75102 159.158 7.90239 158.773 7.92257H152.66L150.093 8.00333C148.614 8.05566 147.139 8.20052 145.674 8.4373L145.56 8.33637L145.264 8.09416C145.128 8.17086 144.978 8.2107 144.827 8.2107C144.676 8.2107 144.526 8.17086 144.39 8.09416L144.023 8.36664C143.831 8.50794 143.421 8.36664 143.106 8.36664H142.574C142.086 8.35315 141.598 8.38692 141.115 8.46758C140.65 8.46434 140.191 8.34378 139.77 8.11433L139.596 8.38682L139.334 8.77034C139.087 8.544 138.775 8.43243 138.461 8.45747C137.979 8.51917 137.495 8.55286 137.011 8.5584C136.509 8.61188 136.004 8.63547 135.5 8.62906H135.133H134.74C134.335 8.63577 133.932 8.68645 133.535 8.78044C133.114 8.8361 132.696 8.92717 132.286 9.05293L131.867 8.90155C131.479 8.83524 131.085 8.83524 130.697 8.90155H130.304C129.898 8.90421 129.495 8.97561 129.108 9.11348H128.706C128.012 8.96632 127.305 8.91888 126.601 8.9722C125.359 8.99465 124.122 9.18087 122.916 9.52728L122.636 9.19424C122.567 9.12359 122.191 9.31534 121.955 9.34562H121.72C121.413 9.32794 121.114 9.22771 120.846 9.05293C120.628 8.89145 119.816 9.31534 119.554 9.31534C119.292 9.31534 118.401 9.31534 118.139 9.31534C117.642 9.32896 117.147 9.37616 116.654 9.45665H116.384C116.13 9.45665 115.868 9.32543 115.615 9.33552H115.126C114.593 9.33552 113.781 9.33552 113.31 9.33552C112.838 9.33552 111.458 9.57776 111.17 9.51721H110.908H110.533C110.156 9.5686 109.775 9.5686 109.397 9.51721C108.99 9.59151 108.588 9.69601 108.192 9.83007C107.913 9.83007 106.874 9.83007 106.55 9.83007C106.227 9.83007 104.804 9.83007 104.149 9.89062C103.494 9.95118 101.119 10.0218 100.429 10.0319C99.7388 10.042 97.8088 10.0319 97.6516 10.153C97.4944 10.2741 96.8656 10.0319 96.6823 10.0016C96.4989 9.97135 95.809 10.264 95.4771 10.2842C95.1452 10.3044 93.8178 10.2842 93.2764 10.2842C92.7349 10.2842 90.8836 10.2842 90.3596 10.2842C89.8356 10.2842 87.6 10.4053 86.5608 10.4053H82.1419L81.9323 10.6173C81.7227 10.809 81.5481 10.1833 81.2686 10.6173L81.2162 10.698C80.9426 10.6474 80.6628 10.6647 80.3953 10.7485C80.2032 10.8292 79.4696 10.5365 79.0243 10.6476H75.5311C72.1514 10.6476 69.0338 10.5668 68.6059 10.476L68.274 10.809L68.2303 10.8595L67.4706 10.7989C67.1235 10.7339 66.7697 10.7339 66.4226 10.7989C66.3353 10.8797 65.9511 10.698 65.8463 10.7989C65.5582 10.8582 65.2651 10.8785 64.973 10.8595H64.7459L63.6805 10.9302H63.4447C63.2451 10.9533 63.0446 10.8963 62.8771 10.7687C62.8334 10.6778 62.3444 10.8696 62.126 10.8696H61.9077C61.8116 10.8696 61.6719 10.7182 61.6195 10.7485L60.8161 11.1724C59.8817 11.0513 58.3359 10.9604 57.3841 10.9604H54.3712C53.873 10.9797 53.3742 10.9628 52.8779 10.9099C52.3142 11.0227 51.7634 11.2089 51.2361 11.4651L50.9566 11.0109C50.9057 10.985 50.8507 10.9717 50.7951 10.9717C50.7394 10.9717 50.6844 10.985 50.6335 11.0109L50.2405 11.2733C49.7052 11.1573 49.1587 11.1268 48.6162 11.1825H48.2057C47.7342 11.1825 47.2626 11.1825 46.791 11.1825H40.9225C40.4146 11.1881 39.9069 11.1544 39.4029 11.0815C39.0449 11.021 38.0144 11.3439 37.8922 11.2935C37.3978 11.2048 36.899 11.1542 36.3988 11.1421C35.8399 11.1421 34.2243 11.3742 34.0322 11.3641C33.7122 11.3708 33.3927 11.3335 33.0803 11.2531C32.9318 11.1522 32.2856 11.4045 32.1022 11.4348C31.7587 11.3659 31.4114 11.3255 31.063 11.3137C30.8272 11.3742 29.9976 11.4247 29.7705 11.4651C29.5435 11.5054 28.8099 11.2733 28.644 11.3137C28.1739 11.3684 27.7017 11.3953 27.2292 11.3944C26.7926 11.3944 25.0285 11.3439 24.2688 11.2632L23.6138 11.6164L23.5003 11.6871C23.1584 11.6398 22.8139 11.623 22.4698 11.6366L22.2253 11.4953L21.8236 11.2733C21.5174 11.458 21.1722 11.5385 20.828 11.5054L20.5398 11.6063L20.2254 11.7073C19.8738 11.6732 19.5204 11.6732 19.1687 11.7073C18.9941 11.7073 17.7278 11.4247 16.6449 11.3439L15.7716 11.8385L15.4485 12.0201C15.0919 11.9359 14.7295 11.8886 14.3656 11.8789C14.1298 11.8789 13.3089 11.8789 13.0731 11.8789C12.8374 11.8789 12.2959 11.7678 12.1999 11.8082C11.886 11.8382 11.5706 11.8382 11.2567 11.8082C10.9511 11.8082 9.94676 11.8082 9.69351 11.7577C9.44025 11.7073 8.69795 11.7577 8.48836 11.7577C8.27877 11.7577 7.79847 12.0101 7.73734 11.9495C7.67621 11.889 7.38801 11.7376 7.30941 11.8183C7.0517 11.9575 6.77274 12.0363 6.48854 12.0504H4.74195C4.63716 11.8687 4.51487 11.7174 4.47121 11.7174C4.42754 11.7174 4.29656 11.7981 4.28782 11.899C3.94563 11.9873 3.59079 11.9873 3.2486 11.899H2.58492C2.24433 11.899 2.00853 11.899 2.07839 11.8486C2.14826 11.7981 2.26179 11.6467 2.16573 11.5155C2.05846 11.2693 2.01885 10.9911 2.05219 10.7182C2.05219 10.5567 2.13078 10.0723 1.99106 10.0723C1.85133 10.0723 1.53695 10.1228 1.56315 10.1833C1.58935 10.2439 1.56315 10.4255 1.56315 10.4457C1.40847 10.4241 1.26269 10.3504 1.14396 10.2338C1.0217 10.1227 0.401663 9.87045 0.270669 9.73924C0.139675 9.60804 -0.0786444 9.07314 0.165878 9.01258C0.4104 8.95203 0.68112 9.6484 0.847045 9.78969H1.04791C1.11778 9.78969 1.20511 9.67867 1.24878 9.59793C1.2277 9.55949 1.19766 9.52868 1.16214 9.50904C1.12661 9.48941 1.08704 9.48176 1.04791 9.48693C0.986782 9.48693 0.79465 9.48691 0.79465 9.40617C0.830533 9.28942 0.889477 9.18392 0.966787 9.09808C1.0441 9.01224 1.13766 8.94842 1.24004 8.91165C1.47583 8.841 2.17447 8.53823 2.17447 8.40702C2.17447 8.27582 2.2618 7.85194 2.36659 8.00333C2.47139 8.15472 2.88182 8.39693 3.05648 8.21526L3.10887 8.04368C3.18747 7.81155 3.23115 7.86203 3.39707 7.97305L3.50186 8.04368H4.54108C4.98232 8.0085 5.41294 7.87123 5.80737 7.63998C5.72004 7.63998 6.01696 7.3473 6.68066 7.16563L7.37929 7.45832C7.51109 7.51869 7.64902 7.55938 7.78974 7.57943H7.89453C8.06919 7.51887 8.1216 7.36748 8.0168 7.22619C7.91201 7.08489 7.74607 6.71148 7.86833 6.67111H7.97312C8.08665 6.67111 8.24384 6.83258 8.30498 6.79221L8.69797 6.58028C8.87773 6.78158 9.08407 6.9485 9.30926 7.0748C9.40532 7.0748 9.79831 7.07482 9.70225 6.9638C9.60619 6.85278 9.70223 6.63073 9.90309 6.46925C10.236 6.31714 10.5938 6.25166 10.9511 6.27749C11.082 6.27749 11.6235 6.27749 11.8243 6.27749C12.1774 6.26937 12.5304 6.2896 12.881 6.33804C13.1605 6.42887 13.7019 5.85361 13.8504 5.87379C13.9989 5.89398 14.2783 6.21694 14.3045 6.25731C14.3307 6.29768 14.4442 6.33805 14.4879 6.25731V5.5811C14.9532 5.67375 15.4095 5.81914 15.8502 6.0151L16.217 5.81324L16.5489 5.62148C16.9481 5.58222 17.3429 5.49771 17.7278 5.36917C17.9199 5.27833 18.3741 5.64165 18.4701 5.61138V5.55082L18.5138 5.44992C18.7219 5.43011 18.9315 5.45058 19.1338 5.51048H19.6752C20.0071 5.42974 20.4001 5.3288 20.5485 5.30861C20.697 5.28843 21.2909 5.23796 21.5528 5.20768C22.0405 5.15542 22.5305 5.13858 23.02 5.15723C23.5116 5.09554 23.9989 4.99436 24.4784 4.85444C24.8737 4.88815 25.2707 4.88815 25.666 4.85444C25.797 4.76361 26.3035 4.95536 26.4258 4.85444C26.5481 4.75351 26.976 4.94527 27.0546 4.85444C27.1332 4.76361 27.4126 4.65259 27.5 4.73333C27.6829 4.86567 27.8956 4.9324 28.1113 4.92509C28.449 4.86306 28.7913 4.83939 29.133 4.85444C29.3863 4.85444 30.1286 4.79388 30.312 4.85444C30.6056 4.84446 30.8979 4.80394 31.1853 4.73333C31.3163 4.67278 31.8752 4.59206 32.1284 4.5315C32.5335 4.59904 32.9278 4.73506 33.2986 4.9352C33.4645 4.99575 33.6567 4.52139 33.744 4.48102H33.7877L34.1545 4.66271C34.4093 4.58127 34.66 4.48355 34.9055 4.37002C35.1151 4.44066 35.3509 4.61222 35.5168 4.57185L35.7177 4.5113C35.8828 4.56912 36.059 4.56912 36.2242 4.5113C36.4993 4.45758 36.7817 4.48538 37.0451 4.59205H37.2546H37.4031C37.569 4.59205 37.8922 4.51131 38.1192 4.49112C38.5976 4.4699 39.0749 4.55557 39.5252 4.74344L39.8745 4.44067C40.0754 4.27919 40.4858 4.55169 40.7478 4.27919C40.7478 4.27919 40.9661 4.3801 41.0797 4.42047L41.6036 4.56178C42.0452 4.52274 42.48 4.41407 42.8961 4.23881C43.0271 4.13788 43.5074 4.30946 43.6122 4.23881C43.717 4.16816 44.1275 4.42047 44.1973 4.45074C44.2672 4.48102 44.5816 4.45075 44.8174 4.55168C45.33 4.50558 45.8401 4.42808 46.3456 4.31954L46.6513 4.61223H46.7037C46.7808 4.6217 46.8588 4.61221 46.9326 4.58438C47.0063 4.55655 47.0741 4.51101 47.1316 4.45074C47.3002 4.31631 47.4954 4.23303 47.6992 4.20853C48.2024 4.20783 48.7048 4.25507 49.2013 4.34981L49.5768 3.9865C49.6641 3.89566 49.9785 4.03696 50.1445 3.9865L50.5112 3.82501C50.7676 3.97244 51.037 4.08749 51.3147 4.16815C51.576 4.13704 51.8393 4.13704 52.1006 4.16815L52.2578 4.24891C52.4587 4.35993 52.5547 3.82502 52.8167 4.17826C52.8167 4.17826 53.1137 4.03695 53.2621 4.03695H53.4979L54.083 4.19843C54.1616 4.19843 54.6856 4.19843 55 4.19843C55.3143 4.19843 56.1352 3.87547 56.2226 3.91584C56.4732 4.04331 56.7155 4.19173 56.9474 4.35991L57.1657 4.01677L57.5063 3.50204C57.9563 3.70458 58.4172 3.87314 58.8861 4.00667C59.3675 3.99744 59.8447 3.90211 60.3009 3.72408C60.5104 3.63325 61.0955 3.63326 61.3051 3.5727L61.4449 3.67363L61.5933 3.77456C61.6687 3.85328 61.7668 3.89687 61.8684 3.89687C61.97 3.89687 62.0681 3.85328 62.1435 3.77456L62.2832 3.64335C62.4026 3.6221 62.5245 3.65461 62.6238 3.73418C62.7199 3.81492 63.1041 3.96633 63.2089 3.87549C63.5994 3.80359 63.9973 3.80359 64.3879 3.87549C64.5625 3.92596 64.9817 3.87547 65.1476 3.94612C65.3814 3.94253 65.6147 3.9223 65.8463 3.88557C66.1434 3.89353 66.4394 3.83881 66.7196 3.72408C66.903 3.62316 67.6802 3.93604 68.0382 3.9966L68.274 3.66353C68.274 3.66353 68.4312 3.66353 68.5011 3.66353L68.9814 3.73418C69.4516 3.81177 69.9307 3.77396 70.3874 3.62318C70.6319 3.48189 71.5489 3.85528 71.8545 3.84519L72.1078 3.78463L72.3435 3.72408C72.6572 3.70467 72.9694 3.66084 73.278 3.59287C73.6321 3.62482 73.9784 3.73086 74.2997 3.90577H74.3609L75.0508 3.61308C75.8542 3.66354 76.6664 3.68373 76.8672 3.68373C77.3007 3.67759 77.731 3.77018 78.1335 3.95622L78.4042 3.50204L78.5265 3.30021C78.807 3.36974 79.0737 3.49986 79.3124 3.68373C79.4085 3.79475 79.915 3.50205 80.046 3.47177C80.177 3.44149 80.6224 3.67362 80.7534 3.69381L80.8145 3.63325L81.1464 3.36077C81.4651 3.52554 81.7991 3.64743 82.1419 3.72408C82.4902 3.7188 82.8355 3.6472 83.1637 3.51215C83.3209 3.43141 83.8623 3.60298 83.9496 3.5727C84.1166 3.50654 84.2752 3.41491 84.4212 3.30021C84.5085 3.20938 84.8579 3.36075 84.9452 3.24973L85.2072 3.37087L85.5041 3.51215C85.9408 3.43141 86.5258 3.31031 86.8053 3.23966C87.1848 3.24064 87.5639 3.26758 87.9406 3.32039C88.2352 3.31259 88.5292 3.35336 88.8139 3.44149H89.0235H89.1021C89.2243 3.31029 89.3466 3.31029 89.3728 3.44149C89.399 3.5727 89.6348 3.89566 89.8094 3.79474C89.9841 3.69381 90.5168 3.40114 90.6827 3.33049C91.1151 3.27449 91.5515 3.27449 91.9839 3.33049C92.1499 3.33049 92.7175 3.08826 92.9358 3.06807C93.3185 3.04874 93.702 3.07581 94.0798 3.14883C94.6206 3.19225 95.1634 3.19225 95.7042 3.14883L96.0098 2.96714L96.2805 2.80566L96.7434 3.16901C97.1475 3.18327 97.551 3.12539 97.9398 2.99742C98.5019 2.90771 99.0719 2.90771 99.634 2.99742C99.9529 3.04354 100.276 3.04354 100.595 2.99742C101 2.93169 101.408 2.90133 101.817 2.90659C102.144 2.88655 102.467 2.81526 102.778 2.69466C102.909 2.6341 103.258 2.85613 103.302 2.87631C103.5 2.78426 103.704 2.71332 103.913 2.66438C104.105 2.66438 104.306 2.80566 104.489 2.77538H104.751C105.045 2.75313 105.336 2.70933 105.625 2.64421C105.817 2.64421 106.271 2.82587 106.315 2.73503L106.376 2.66438L106.419 2.61393C106.651 2.59622 106.883 2.61661 107.109 2.67448C107.406 2.73504 108.734 2.56345 108.961 2.624L109.144 2.70476L109.371 2.81576C109.594 2.69287 109.848 2.66431 110.087 2.73503L110.244 2.68455L110.506 2.59372C110.736 2.42814 111.006 2.35372 111.275 2.38179C111.579 2.43666 111.888 2.43666 112.192 2.38179C112.441 2.33627 112.691 2.30928 112.943 2.30103C113.193 2.29521 113.442 2.32575 113.685 2.39189C113.825 2.44236 114.235 2.34143 114.288 2.39189C114.481 2.52758 114.713 2.571 114.934 2.513C115.179 2.44235 116.602 2.513 117.1 2.45245C117.641 2.39191 118.176 2.27366 118.698 2.0992L118.942 2.16986L119.414 2.29096C119.973 2.29096 120.61 2.29096 120.82 2.29096L121.03 2.20013L121.3 2.079C121.628 2.06976 121.955 2.09341 122.278 2.14965C122.462 2.20011 123.073 2.09919 123.23 2.14965H123.37H123.51C123.872 2.16258 124.234 2.14233 124.593 2.0891L124.994 2.01844L125.335 1.95789L126.095 1.85699L126.575 1.95789C126.785 1.95789 127.448 2.04874 127.632 2.0992C127.815 2.14966 128.252 2.35151 128.313 2.25058C128.452 2.12031 128.623 2.04278 128.802 2.02855C129.089 1.92374 129.38 1.83615 129.675 1.76613C129.937 1.76613 130.994 1.76613 131.422 1.70558C132.049 1.71365 132.676 1.76084 133.299 1.84689C133.492 1.84689 134.05 1.63494 134.173 1.6854C134.295 1.73587 134.54 1.6854 134.627 1.74596C135.027 1.71578 135.425 1.64487 135.815 1.53402L136.286 1.58447H136.627C136.94 1.43829 137.285 1.41005 137.613 1.50375H137.858H138.111C138.401 1.40409 138.712 1.43287 138.985 1.58447C139.168 1.72577 139.963 1.23124 140.382 1.1505L140.74 1.41292C140.813 1.41559 140.885 1.38681 140.941 1.33216L141.002 1.26151C141.073 1.11942 141.189 1.01457 141.325 0.968845C141.603 1.00021 141.876 1.0749 142.137 1.19088C142.321 1.25144 143.01 1.19087 143.176 1.27161C143.41 1.29098 143.645 1.27402 143.875 1.22116C144.206 1.22968 144.536 1.26677 144.862 1.33216C145.106 1.33216 145.988 1.17067 146.268 1.23123L146.381 1.1404C146.731 0.827532 146.853 1.35235 147.08 1.27161L147.307 1.18078C147.534 0.997497 147.789 0.864063 148.058 0.787156C148.429 0.77852 148.8 0.805543 149.167 0.867913C149.515 0.923477 149.867 0.923477 150.215 0.867913C150.557 0.839378 150.901 0.887335 151.228 1.00919C151.628 1.05808 152.032 1.03082 152.425 0.928466L152.791 1.07985C152.932 1.14523 153.087 1.15799 153.234 1.11635C153.381 1.07471 153.514 0.980781 153.612 0.847739L154.363 0.716532C155.138 0.958755 155.955 0.958755 156.73 0.716532C157.027 0.645884 157.298 1.13032 157.603 0.716532C157.699 0.585329 158.188 0.655977 158.476 0.716532H158.642C158.795 0.800076 158.964 0.834902 159.131 0.817432C159.297 0.7439 159.458 0.656208 159.612 0.555048C159.786 0.44403 160.267 0.84772 160.433 0.827535C160.649 0.763331 160.861 0.685864 161.07 0.595427C161.287 0.655096 161.494 0.757502 161.681 0.89819H161.786C161.943 0.89819 162.109 0.74679 162.275 0.696327L162.563 0.6156L163.262 0.857811C163.405 0.853583 163.545 0.812193 163.673 0.736706C163.777 0.666058 164.153 0.817443 164.24 0.797258H164.31C164.406 0.736703 164.493 0.575232 164.563 0.585324C164.764 0.585324 164.965 0.736696 165.157 0.726603C165.349 0.716511 165.637 0.565121 165.891 0.534843H166.109C166.369 0.582537 166.634 0.56184 166.886 0.47429L167.078 0.625703L167.209 0.726603L168.144 0.817432C168.617 0.75816 169.092 0.731214 169.567 0.736706C169.768 0.827538 170.877 0.736722 171.576 0.847739L172.24 0.565119C172.464 0.479649 172.705 0.479649 172.929 0.565119L173.253 0.726603C173.552 0.625707 173.844 0.49749 174.126 0.343114H174.283C174.456 0.384329 174.621 0.459396 174.772 0.565119L174.859 0.6156C175.249 0.742228 175.651 0.813393 176.056 0.827535C176.75 0.755979 177.437 0.610713 178.108 0.393564C178.165 0.437928 178.217 0.48863 178.265 0.544945C178.519 0.563056 178.774 0.546128 179.025 0.494495C179.482 0.421633 179.943 0.387893 180.405 0.393564C180.821 0.488551 181.23 0.623581 181.627 0.797258C181.828 0.888091 182.501 0.655963 182.614 0.797258C182.728 0.938554 183.488 0.49448 183.793 0.353185L184.151 0.676153L184.308 0.817432C184.848 0.674091 185.397 0.586301 185.95 0.555048H186.343H186.754C187.197 0.666841 187.659 0.610198 188.072 0.393564L188.448 0.706429C188.736 0.938557 189.077 0.262374 189.47 0.595427C189.597 0.709413 189.755 0.76611 189.916 0.75497C190.077 0.74383 190.228 0.665585 190.343 0.534843C190.343 0.534843 190.43 0.534843 190.456 0.534843L190.727 0.645877C191.024 0.645877 191.356 0.746807 191.469 0.777084C191.766 0.730481 192.058 0.652773 192.343 0.544945H192.561H193.015L194.849 0.484393H195.321H195.618C195.941 0.575226 196.334 0.66605 196.491 0.696327C196.726 0.683004 196.958 0.632062 197.181 0.544945C197.312 0.544945 197.714 0.706439 197.827 0.716532L198.072 0.302735C198.465 0.24218 199.259 0.363283 199.39 0.484393Z" fill="#6FB2A5" fill-opacity="0.5"/>
</g>
<defs>
<clipPath id="clip0_1_149">
<rect width="220" height="12" fill="white"/>
</clipPath>
</defs>
</svg>
