<svg width="46" height="46" viewBox="0 0 46 46" fill="none" xmlns="http://www.w3.org/2000/svg">
<circle cx="23" cy="23" r="23" fill="#54A0B3"/>
<path d="M19.4384 27.6884L15.2732 23.0024C15.1147 22.8239 14.8918 22.7156 14.6535 22.7014C14.4151 22.6872 14.181 22.7683 14.0024 22.9268C13.8239 23.0853 13.7156 23.3082 13.7014 23.5466C13.6872 23.7849 13.7683 24.0191 13.9268 24.1976L18.7268 29.5976C18.8083 29.6893 18.9077 29.7633 19.0188 29.8152C19.1299 29.8671 19.2505 29.8957 19.3731 29.8993C19.4957 29.9029 19.6178 29.8814 19.7318 29.8361C19.8458 29.7909 19.9493 29.7228 20.036 29.636L32.636 17.036C32.795 16.8654 32.8815 16.6397 32.8774 16.4066C32.8733 16.1734 32.7789 15.951 32.614 15.7861C32.4491 15.6212 32.2266 15.5267 31.9934 15.5226C31.7603 15.5185 31.5346 15.605 31.364 15.764L19.4384 27.6884Z" fill="white"/>
</svg>
