<svg width="8" height="14" viewBox="0 0 8 14" fill="none" xmlns="http://www.w3.org/2000/svg">
<path d="M0.746887 13.0801C0.824296 13.1577 0.916255 13.2193 1.0175 13.2613C1.11874 13.3033 1.22727 13.325 1.33689 13.325C1.4465 13.325 1.55503 13.3033 1.65628 13.2613C1.75752 13.2193 1.84948 13.1577 1.92689 13.0801L7.53355 7.47346C7.59536 7.41179 7.64439 7.33853 7.67784 7.25788C7.7113 7.17723 7.72852 7.09077 7.72852 7.00346C7.72852 6.91615 7.7113 6.82969 7.67784 6.74905C7.64439 6.6684 7.59536 6.59514 7.53355 6.53346L1.92689 0.926794C1.60022 0.600127 1.07355 0.600127 0.746887 0.926794C0.42022 1.25346 0.42022 1.78013 0.746887 2.10679L5.64022 7.00013L0.74022 11.9001C0.42022 12.2268 0.42022 12.7535 0.746887 13.0801Z" fill="#54A0B2"/>
</svg>
