<svg width="8" height="14" viewBox="0 0 8 14" fill="none" xmlns="http://www.w3.org/2000/svg">
<path d="M7.25311 0.919872C7.1757 0.842266 7.08375 0.780695 6.9825 0.738684C6.88126 0.696673 6.77273 0.675049 6.66311 0.675049C6.5535 0.675049 6.44497 0.696673 6.34372 0.738684C6.24248 0.780695 6.15052 0.842266 6.07311 0.919872L0.466447 6.52654C0.404645 6.58821 0.355613 6.66147 0.322158 6.74212C0.288704 6.82277 0.271484 6.90923 0.271484 6.99654C0.271484 7.08385 0.288704 7.17031 0.322158 7.25095C0.355613 7.3316 0.404645 7.40486 0.466447 7.46654L6.07311 13.0732C6.39978 13.3999 6.92645 13.3999 7.25311 13.0732C7.57978 12.7465 7.57978 12.2199 7.25311 11.8932L2.35978 6.99987L7.25978 2.09987C7.57978 1.77321 7.57978 1.24654 7.25311 0.919872Z" fill="#54A0B2"/>
</svg>
