<svg width="30" height="28" viewBox="0 0 30 28" fill="none" xmlns="http://www.w3.org/2000/svg">
<path d="M12.12 12.48C12.195 12.04 12.36 11.6534 12.57 11.3334C13.02 10.5867 13.785 10.2 14.82 10.1867C15.495 10.1867 16.11 10.4534 16.545 10.84C16.965 11.2534 17.25 11.8267 17.25 12.4H19.95C19.92 11.7734 19.785 11.2 19.5 10.6667C19.275 10.16 18.93 9.70669 18.48 9.33335C16.305 7.54669 12.27 7.80002 10.425 9.82669C8.49 12.0534 8.445 15.9467 10.41 18.1734C12.225 20.16 16.2 20.44 18.36 18.6667C18.825 18.3334 19.2 17.92 19.5 17.44C19.74 16.96 19.905 16.4534 19.92 15.9067H17.25C17.25 16.1867 17.145 16.44 17.01 16.6667C16.875 16.92 16.695 17.12 16.5 17.2934C16.005 17.64 15.42 17.8267 14.79 17.8267C14.25 17.8134 13.8 17.72 13.455 17.52C13.0661 17.3257 12.7564 17.027 12.57 16.6667C11.82 15.4667 11.94 13.8 12.12 12.48ZM15 0.666687C6.75 0.666687 0 6.66669 0 14C0.795 31.6934 29.25 31.68 30 14C30 6.66669 23.25 0.666687 15 0.666687ZM15 24.6667C8.385 24.6667 3 19.88 3 14C3.66 -0.146646 26.34 -0.146646 27 14C27 19.88 21.615 24.6667 15 24.6667Z" fill="#1D1D1D" fill-opacity="0.8"/>
</svg>
