<svg width="28" height="25" viewBox="0 0 28 25" fill="none" xmlns="http://www.w3.org/2000/svg">
<path d="M3.29441 21.7082H5.40789L18.4284 10.1862L16.315 8.31592L3.29441 19.838V21.7082ZM24.8821 8.24912L18.4662 2.63838L20.5797 0.768137C21.1584 0.256046 21.8694 0 22.7128 0C23.5562 0 24.2667 0.256046 24.8444 0.768137L26.9578 2.63838C27.5365 3.15047 27.8385 3.76855 27.8636 4.4926C27.8888 5.21665 27.612 5.83428 27.0333 6.34548L24.8821 8.24912ZM22.6931 10.2196L6.69107 24.38H0.275146V18.7025L16.2772 4.54203L22.6931 10.2196ZM17.3717 9.25104L16.315 8.31592L18.4284 10.1862L17.3717 9.25104Z" fill="#27525C"/>
</svg>
