<svg width="16" height="16" viewBox="0 0 16 16" fill="none" xmlns="http://www.w3.org/2000/svg">
<path d="M16 3.46671H6.93333M6.93333 3.46671C6.93333 2.90091 6.70857 2.35829 6.30849 1.95821C5.90842 1.55814 5.3658 1.33337 4.8 1.33337C4.23421 1.33337 3.69158 1.55814 3.29151 1.95821C2.89143 2.35829 2.66667 2.90091 2.66667 3.46671M6.93333 3.46671C6.93333 4.0325 6.70857 4.57512 6.30849 4.9752C5.90842 5.37528 5.3658 5.60004 4.8 5.60004C4.23421 5.60004 3.69158 5.37528 3.29151 4.9752C2.89143 4.57512 2.66667 4.0325 2.66667 3.46671M2.66667 3.46671H0M16 12H13.3333M13.3333 12C13.3333 11.4342 13.1086 10.8916 12.7085 10.4915C12.3084 10.0915 11.7658 9.86671 11.2 9.86671C10.6342 9.86671 10.0916 10.0915 9.69151 10.4915C9.29143 10.8916 9.06667 11.4342 9.06667 12M13.3333 12C13.3333 12.5658 13.1086 13.1085 12.7085 13.5085C12.3084 13.9086 11.7658 14.1334 11.2 14.1334C10.6342 14.1334 10.0916 13.9086 9.69151 13.5085C9.29143 13.1085 9.06667 12.5658 9.06667 12M9.06667 12H0" stroke="#1D1D1D" stroke-opacity="0.6" stroke-width="1.5"/>
</svg>
