<svg width="31" height="30" viewBox="0 0 31 30" fill="none" xmlns="http://www.w3.org/2000/svg">
<path d="M15.9552 0C20.0217 0 20.529 0.0149999 22.1245 0.0899999C23.7185 0.165 24.8035 0.4155 25.7584 0.7875C26.7462 1.1685 27.5784 1.6845 28.4105 2.517C29.1716 3.26684 29.7605 4.17388 30.1362 5.175C30.5059 6.1305 30.7573 7.2195 30.8321 8.817C30.9025 10.416 30.9219 10.9245 30.9219 15C30.9219 19.0755 30.907 19.584 30.8321 21.183C30.7573 22.7805 30.5059 23.868 30.1362 24.825C29.7615 25.8267 29.1725 26.7339 28.4105 27.483C27.6621 28.2455 26.7572 28.8356 25.7584 29.2125C24.805 29.583 23.7185 29.835 22.1245 29.91C20.529 29.9805 20.0217 30 15.9552 30C11.8887 30 11.3814 29.985 9.78591 29.91C8.19196 29.835 7.10687 29.583 6.15199 29.2125C5.1527 28.8367 4.24751 28.2464 3.49988 27.483C2.73868 26.7333 2.14978 25.8262 1.77422 24.825C1.40304 23.8695 1.1531 22.7805 1.07826 21.183C1.00792 19.584 0.988464 19.0755 0.988464 15C0.988464 10.9245 1.00343 10.416 1.07826 8.817C1.1531 7.218 1.40304 6.132 1.77422 5.175C2.14874 4.17327 2.73778 3.26598 3.49988 2.517C4.24773 1.75385 5.15285 1.16359 6.15199 0.7875C7.10687 0.4155 8.19046 0.165 9.78591 0.0899999C11.3814 0.0194999 11.8887 0 15.9552 0ZM15.9552 7.5C13.9705 7.5 12.0671 8.29018 10.6637 9.6967C9.26026 11.1032 8.47184 13.0109 8.47184 15C8.47184 16.9891 9.26026 18.8968 10.6637 20.3033C12.0671 21.7098 13.9705 22.5 15.9552 22.5C17.9399 22.5 19.8433 21.7098 21.2467 20.3033C22.6502 18.8968 23.4386 16.9891 23.4386 15C23.4386 13.0109 22.6502 11.1032 21.2467 9.6967C19.8433 8.29018 17.9399 7.5 15.9552 7.5ZM25.6836 7.125C25.6836 6.62772 25.4865 6.15081 25.1356 5.79918C24.7848 5.44754 24.3089 5.25 23.8127 5.25C23.3166 5.25 22.8407 5.44754 22.4899 5.79918C22.139 6.15081 21.9419 6.62772 21.9419 7.125C21.9419 7.62228 22.139 8.0992 22.4899 8.45083C22.8407 8.80246 23.3166 9 23.8127 9C24.3089 9 24.7848 8.80246 25.1356 8.45083C25.4865 8.0992 25.6836 7.62228 25.6836 7.125ZM15.9552 10.5C17.146 10.5 18.2881 10.9741 19.1301 11.818C19.9722 12.6619 20.4452 13.8065 20.4452 15C20.4452 16.1935 19.9722 17.3381 19.1301 18.182C18.2881 19.0259 17.146 19.5 15.9552 19.5C14.7644 19.5 13.6223 19.0259 12.7803 18.182C11.9382 17.3381 11.4652 16.1935 11.4652 15C11.4652 13.8065 11.9382 12.6619 12.7803 11.818C13.6223 10.9741 14.7644 10.5 15.9552 10.5Z" fill="#B24A3F"/>
</svg>
