<svg width="30" height="28" viewBox="0 0 30 28" fill="none" xmlns="http://www.w3.org/2000/svg">
<path d="M15 0.666687C19.0755 0.666687 19.584 0.68002 21.183 0.746687C22.7805 0.813354 23.868 1.03602 24.825 1.36669C25.815 1.70535 26.649 2.16402 27.483 2.90402C28.2457 3.57055 28.8359 4.37681 29.2125 5.26669C29.583 6.11602 29.835 7.08402 29.91 8.50402C29.9805 9.92535 30 10.3774 30 14C30 17.6227 29.985 18.0747 29.91 19.496C29.835 20.916 29.583 21.8827 29.2125 22.7334C28.837 23.6237 28.2467 24.4302 27.483 25.096C26.7329 25.7738 25.826 26.2984 24.825 26.6334C23.8695 26.9627 22.7805 27.1867 21.183 27.2534C19.584 27.316 19.0755 27.3334 15 27.3334C10.9245 27.3334 10.416 27.32 8.817 27.2534C7.2195 27.1867 6.132 26.9627 5.175 26.6334C4.17349 26.2993 3.26629 25.7746 2.517 25.096C1.75411 24.4296 1.1639 23.6233 0.7875 22.7334C0.4155 21.884 0.165 20.916 0.0899999 19.496C0.0194999 18.0747 0 17.6227 0 14C0 10.3774 0.0149999 9.92535 0.0899999 8.50402C0.165 7.08269 0.4155 6.11735 0.7875 5.26669C1.16285 4.37626 1.75321 3.56978 2.517 2.90402C3.26651 2.22566 4.17364 1.70099 5.175 1.36669C6.132 1.03602 7.218 0.813354 8.817 0.746687C10.416 0.68402 10.9245 0.666687 15 0.666687ZM15 7.33335C13.0109 7.33335 11.1032 8.03573 9.6967 9.28597C8.29018 10.5362 7.5 12.2319 7.5 14C7.5 15.7681 8.29018 17.4638 9.6967 18.7141C11.1032 19.9643 13.0109 20.6667 15 20.6667C16.9891 20.6667 18.8968 19.9643 20.3033 18.7141C21.7098 17.4638 22.5 15.7681 22.5 14C22.5 12.2319 21.7098 10.5362 20.3033 9.28597C18.8968 8.03573 16.9891 7.33335 15 7.33335ZM24.75 7.00002C24.75 6.55799 24.5525 6.13407 24.2008 5.82151C23.8492 5.50895 23.3723 5.33335 22.875 5.33335C22.3777 5.33335 21.9008 5.50895 21.5492 5.82151C21.1975 6.13407 21 6.55799 21 7.00002C21 7.44205 21.1975 7.86597 21.5492 8.17853C21.9008 8.49109 22.3777 8.66669 22.875 8.66669C23.3723 8.66669 23.8492 8.49109 24.2008 8.17853C24.5525 7.86597 24.75 7.44205 24.75 7.00002ZM15 10C16.1935 10 17.3381 10.4214 18.182 11.1716C19.0259 11.9217 19.5 12.9392 19.5 14C19.5 15.0609 19.0259 16.0783 18.182 16.8284C17.3381 17.5786 16.1935 18 15 18C13.8065 18 12.6619 17.5786 11.818 16.8284C10.9741 16.0783 10.5 15.0609 10.5 14C10.5 12.9392 10.9741 11.9217 11.818 11.1716C12.6619 10.4214 13.8065 10 15 10Z" fill="#334368" fill-opacity="0.8"/>
</svg>
