<svg width="32" height="26" viewBox="0 0 32 26" fill="none" xmlns="http://www.w3.org/2000/svg">
<path d="M30.0757 0.5H1.84277C1.1638 0.5 0.61525 0.946875 0.61525 1.5V24.5C0.61525 25.0531 1.1638 25.5 1.84277 25.5H30.0757C30.7547 25.5 31.3033 25.0531 31.3033 24.5V1.5C31.3033 0.946875 30.7547 0.5 30.0757 0.5ZM9.71808 21.8031H5.16475V9.87187H9.71808V21.8031ZM7.44333 8.24063C6.92135 8.24063 6.4111 8.11453 5.97709 7.87828C5.54308 7.64204 5.20481 7.30626 5.00506 6.91339C4.80531 6.52053 4.75304 6.08824 4.85487 5.67118C4.95671 5.25412 5.20806 4.87103 5.57716 4.57035C5.94625 4.26966 6.41651 4.06489 6.92846 3.98194C7.44041 3.89898 7.97105 3.94156 8.4533 4.10428C8.93554 4.26701 9.34773 4.54258 9.63772 4.89615C9.92772 5.24971 10.0825 5.66539 10.0825 6.09062C10.0787 7.27812 8.89718 8.24063 7.44333 8.24063ZM26.7653 21.8031H22.2158V16C22.2158 14.6156 22.1851 12.8375 19.849 12.8375C17.4822 12.8375 17.1177 14.3438 17.1177 15.9V21.8031H12.5721V9.87187H16.9374V11.5031H16.9988C17.6049 10.5656 19.0894 9.575 21.3066 9.575C25.9175 9.575 26.7653 12.0469 26.7653 15.2594V21.8031Z" fill="#334368" fill-opacity="0.8"/>
</svg>
