<svg width="31" height="30" viewBox="0 0 31 30" fill="none" xmlns="http://www.w3.org/2000/svg">
<path d="M29.4879 0.9375H1.31757C0.640105 0.9375 0.0927734 1.44023 0.0927734 2.0625V27.9375C0.0927734 28.5598 0.640105 29.0625 1.31757 29.0625H29.4879C30.1654 29.0625 30.7127 28.5598 30.7127 27.9375V2.0625C30.7127 1.44023 30.1654 0.9375 29.4879 0.9375ZM9.17542 24.9035H4.63218V11.4809H9.17542V24.9035ZM6.90572 9.6457C6.3849 9.6457 5.87577 9.50385 5.44272 9.23807C5.00968 8.97229 4.67216 8.59454 4.47285 8.15257C4.27354 7.7106 4.22139 7.22427 4.323 6.75508C4.4246 6.28589 4.6754 5.85491 5.04368 5.51664C5.41196 5.17837 5.88117 4.94801 6.39198 4.85468C6.9028 4.76135 7.43227 4.80925 7.91344 4.99232C8.39462 5.17539 8.80589 5.48541 9.09524 5.88317C9.38459 6.28093 9.53903 6.74857 9.53903 7.22695C9.53521 8.56289 8.35634 9.6457 6.90572 9.6457ZM26.1848 24.9035H21.6454V18.375C21.6454 16.8176 21.6148 14.8172 19.2838 14.8172C16.9223 14.8172 16.5587 16.5117 16.5587 18.2625V24.9035H12.0231V11.4809H16.3788V13.316H16.44C17.0448 12.2613 18.526 11.1469 20.7383 11.1469C25.3389 11.1469 26.1848 13.9277 26.1848 17.5418V24.9035Z" fill="#B24A3F"/>
</svg>
