<svg width="185" height="12" viewBox="0 0 185 12" fill="none" xmlns="http://www.w3.org/2000/svg">
<g clip-path="url(#clip0_1_153)">
<path d="M167.669 0.484393C167.779 0.59541 167.963 0.484401 168.088 0.272459C168.242 0.534864 168.374 0.161423 168.433 0.221978C168.646 0.47429 168.785 0.444013 169.013 0.221978C169.072 0.161423 169.351 0.474309 169.549 0.524772H169.696C169.89 0.437313 170.095 0.406382 170.298 0.433943L171.312 0.686255L171.524 0.454117C171.545 0.441308 171.568 0.434682 171.591 0.434682C171.613 0.434682 171.636 0.441308 171.657 0.454117C171.889 0.60907 172.136 0.71782 172.391 0.777084H172.589C172.78 0.595419 172.92 0.777082 172.89 1.08995L173.28 0.676153L173.603 0.333011C173.91 0.492154 174.242 0.534003 174.565 0.454117C174.778 0.353191 175.417 0.807341 175.644 0.787156C176.057 0.859849 176.465 0.981426 176.863 1.1505V0.766982C176.913 0.719576 176.972 0.694844 177.032 0.696327L177.326 0.958742C177.626 0.866055 177.939 0.904868 178.222 1.06975C178.347 1.21104 178.817 0.908269 178.956 0.978916C179.19 1.10093 179.445 1.12895 179.691 1.05967C180.177 0.971402 180.67 0.954467 181.159 1.00919L181.578 1.24133C181.71 1.32207 181.967 1.08995 182.18 1.05967H182.334C182.484 1.12818 182.647 1.12818 182.797 1.05967L183.179 1.48354C183.634 1.26151 184.06 1.30188 184.126 1.58447C184.192 1.86706 184.552 2.52308 184.648 2.5029C184.743 2.48271 184.985 2.5029 185 2.57355C185.015 2.6442 184.912 2.93688 184.758 3.0479C184.603 3.15892 184.596 4.05715 184.354 4.50122L184.435 5.07647V5.20768C184.435 5.40953 184.368 5.53065 184.302 5.4701C184.258 5.43035 184.204 5.41552 184.153 5.42867C184.101 5.44183 184.054 5.48196 184.023 5.54075C184.442 5.77288 183.95 6.1564 184.148 6.4289C184.161 6.45038 184.167 6.47706 184.167 6.50457C184.167 6.53209 184.161 6.5588 184.148 6.58028L183.832 6.9638C183.832 7.25648 183.48 7.56933 183.098 7.67026L182.738 7.29684L182.679 7.23629C182.411 7.37964 182.129 7.46806 181.842 7.4987C181.615 7.4987 180.858 7.42805 180.645 7.4987H180.256C180.081 7.45041 179.905 7.4167 179.727 7.39777C179.549 7.37773 179.37 7.37773 179.191 7.39777C178.74 7.45905 178.286 7.48599 177.833 7.4785C177.304 7.4785 175.63 7.47852 175.358 7.40787C174.955 7.45517 174.557 7.55657 174.168 7.71064H174.102H173.706C173.328 7.6115 172.941 7.59449 172.56 7.66019C172.362 7.73083 171.715 7.51888 171.554 7.54915C171.236 7.59506 170.917 7.59506 170.599 7.54915C170.401 7.4886 169.439 7.6198 168.969 7.63998H167.251C166.979 7.63998 166.568 7.751 166.479 7.63998C166.289 7.31702 166.024 7.77118 165.885 7.4785C165.885 7.42804 165.694 7.42804 165.606 7.4785C165.517 7.52896 165.114 7.70055 165.033 7.61981L164.746 7.32712C164.655 7.42497 164.549 7.49602 164.437 7.53594C164.325 7.57586 164.207 7.58381 164.093 7.55926C163.946 7.47852 163.63 7.43814 163.461 7.3675C163.292 7.29685 162.727 7.56934 162.609 7.45832C162.492 7.34731 161.941 7.72072 161.78 7.76109C161.409 7.66766 161.043 7.53952 160.685 7.37757L160.355 7.65008L160.127 7.85192C159.785 7.79141 159.447 7.70039 159.114 7.57943C158.872 7.495 158.627 7.43095 158.379 7.38767C157.846 7.51488 157.325 7.73183 156.83 8.0336L156.544 7.4785C156.498 7.45095 156.45 7.43673 156.4 7.43673C156.351 7.43673 156.302 7.45095 156.257 7.4785C155.941 7.82164 155.582 7.24639 155.258 7.55926C155.122 7.66401 154.965 7.70643 154.81 7.68036C154.544 7.59769 154.274 7.53369 154.003 7.4886H153.76C153.522 7.58523 153.274 7.63283 153.026 7.62988C152.757 7.62116 152.489 7.58064 152.226 7.50877C152.093 7.42803 151.609 7.73083 151.447 7.81157C151.286 7.89231 150.852 7.54915 150.713 7.63998C150.332 7.7085 149.947 7.7085 149.567 7.63998H149.266C149.016 7.63998 148.767 7.75101 148.532 7.74091H148.069C147.462 7.65575 146.851 7.61532 146.24 7.61981L145.822 7.78129L145.455 7.92257C144.97 7.80018 144.478 7.74607 143.986 7.76109H140.013C139.617 7.76109 139.213 7.76109 138.816 7.76109H138.574L137.994 7.93267C137.942 7.93267 137.575 7.87212 137.259 7.81157C136.943 7.75101 135.277 7.91249 135.152 7.81157C134.959 7.77597 134.766 7.75576 134.571 7.75102C134.447 7.75102 133.837 7.90239 133.514 7.92257H128.373L126.214 8.00333C124.971 8.05565 123.731 8.20052 122.499 8.4373L122.403 8.33637L122.153 8.09416C122.039 8.17086 121.914 8.2107 121.786 8.2107C121.659 8.2107 121.533 8.17086 121.419 8.09416L121.111 8.36664C120.949 8.50794 120.604 8.36664 120.34 8.36664H119.892C119.482 8.35315 119.071 8.38691 118.665 8.46758C118.274 8.46434 117.888 8.34378 117.534 8.11433L117.387 8.38682L117.167 8.77034C116.959 8.544 116.697 8.43243 116.433 8.45747C116.028 8.51917 115.621 8.55286 115.214 8.5584C114.791 8.61188 114.367 8.63546 113.943 8.62906H113.635H113.304C112.964 8.63577 112.625 8.68645 112.291 8.78044C111.937 8.8361 111.586 8.92716 111.241 9.05293L110.888 8.90155C110.562 8.83524 110.231 8.83524 109.904 8.90155H109.574C109.233 8.90421 108.894 8.97561 108.568 9.11348H108.23C107.647 8.96632 107.052 8.91888 106.46 8.9722C105.415 8.99465 104.375 9.18087 103.361 9.52728L103.126 9.19424C103.067 9.12359 102.752 9.31534 102.553 9.34562H102.355C102.097 9.32794 101.846 9.22771 101.621 9.05293C101.437 8.89145 100.754 9.31534 100.534 9.31534C100.314 9.31534 99.5646 9.31534 99.3443 9.31534C98.9265 9.32896 98.5096 9.37616 98.0958 9.45665H97.8682C97.6552 9.45665 97.4349 9.32542 97.2219 9.33552H96.8107C96.3627 9.33552 95.6798 9.33552 95.2832 9.33552C94.8867 9.33552 93.7264 9.57776 93.484 9.51721H93.2637H92.948C92.6308 9.5686 92.3104 9.5686 91.9933 9.51721C91.651 9.59151 91.3125 9.69601 90.9799 9.83007C90.7449 9.83007 89.871 9.83007 89.5993 9.83007C89.3276 9.83007 88.1306 9.83007 87.5798 9.89062C87.029 9.95118 85.0316 10.0218 84.4514 10.0319C83.8713 10.042 82.2483 10.0319 82.1161 10.153C81.984 10.2741 81.4552 10.0319 81.301 10.0016C81.1468 9.97135 80.5667 10.264 80.2876 10.2842C80.0085 10.3044 78.8923 10.2842 78.437 10.2842C77.9817 10.2842 76.4249 10.2842 75.9843 10.2842C75.5436 10.2842 73.6637 10.4053 72.7898 10.4053H69.0739L68.8977 10.6173C68.7214 10.809 68.5745 10.1833 68.3395 10.6173L68.2955 10.698C68.0654 10.6474 67.8301 10.6647 67.6052 10.7485C67.4436 10.8292 66.8268 10.5365 66.4523 10.6476H63.5148C60.6728 10.6476 58.0512 10.5668 57.6913 10.476L57.4123 10.809L57.3755 10.8595L56.7367 10.7989C56.4448 10.7339 56.1473 10.7339 55.8554 10.7989C55.782 10.8797 55.4589 10.698 55.3708 10.7989C55.1285 10.8582 54.8821 10.8785 54.6364 10.8595H54.4455L53.5495 10.9302H53.3513C53.1834 10.9533 53.0148 10.8963 52.8739 10.7687C52.8372 10.6778 52.426 10.8696 52.2424 10.8696H52.0588C51.978 10.8696 51.8605 10.7182 51.8164 10.7485L51.1408 11.1724C50.3551 11.0513 49.0553 10.9604 48.2548 10.9604H45.7213C45.3023 10.9797 44.8829 10.9628 44.4655 10.9099C43.9915 11.0227 43.5284 11.2089 43.0849 11.4651L42.8499 11.0109C42.8071 10.985 42.7608 10.9717 42.7141 10.9717C42.6673 10.9717 42.621 10.985 42.5782 11.0109L42.2477 11.2733C41.7976 11.1573 41.338 11.1268 40.8818 11.1825H40.5367C40.1401 11.1825 39.7436 11.1825 39.347 11.1825H34.4121C33.985 11.1881 33.5581 11.1544 33.1343 11.0815C32.8332 11.021 31.9667 11.3439 31.8639 11.2935C31.4482 11.2048 31.0287 11.1542 30.6081 11.1421C30.1381 11.1421 28.7796 11.3742 28.618 11.3641C28.3489 11.3708 28.0802 11.3335 27.8176 11.2531C27.6927 11.1522 27.1493 11.4045 26.9951 11.4348C26.7062 11.3659 26.4142 11.3255 26.1212 11.3137C25.9229 11.3742 25.2253 11.4247 25.0343 11.4651C24.8434 11.5054 24.2265 11.2733 24.087 11.3137C23.6917 11.3684 23.2947 11.3953 22.8974 11.3944C22.5302 11.3944 21.0468 11.3439 20.4079 11.2632L19.8571 11.6164L19.7616 11.6871C19.4741 11.6398 19.1844 11.623 18.8951 11.6366L18.6895 11.4953L18.3517 11.2733C18.0942 11.458 17.8039 11.5385 17.5145 11.5054L17.2722 11.6063L17.0078 11.7073C16.7121 11.6732 16.4149 11.6732 16.1192 11.7073C15.9723 11.7073 14.9075 11.4247 13.9969 11.3439L13.2625 11.8385L12.9908 12.0201C12.691 11.9359 12.3862 11.8886 12.0802 11.8788C11.8819 11.8788 11.1916 11.8788 10.9934 11.8788C10.7951 11.8788 10.3398 11.7678 10.259 11.8082C9.99508 11.8382 9.72982 11.8382 9.4659 11.8082C9.20887 11.8082 8.36435 11.8082 8.15139 11.7577C7.93842 11.7073 7.31422 11.7577 7.13797 11.7577C6.96172 11.7577 6.55784 12.0101 6.50643 11.9495C6.45502 11.889 6.21267 11.7376 6.14658 11.8183C5.92987 11.9575 5.69529 12.0363 5.4563 12.0504H3.98758C3.89946 11.8687 3.79663 11.7174 3.75991 11.7174C3.72319 11.7174 3.61304 11.7981 3.6057 11.899C3.31795 11.9873 3.01956 11.9873 2.73181 11.899H2.17371C1.88731 11.899 1.68902 11.899 1.74777 11.8486C1.80652 11.7981 1.90199 11.6467 1.82121 11.5155C1.73101 11.2693 1.6977 10.9911 1.72574 10.7182C1.72574 10.5567 1.79182 10.0723 1.67433 10.0723C1.55683 10.0723 1.29247 10.1228 1.3145 10.1833C1.33653 10.2439 1.3145 10.4255 1.3145 10.4457C1.18442 10.4241 1.06184 10.3504 0.961997 10.2338C0.859187 10.1227 0.337791 9.87044 0.227637 9.73924C0.117483 9.60804 -0.0661037 9.07313 0.139517 9.01258C0.345138 8.95202 0.572789 9.6484 0.712317 9.78969H0.881228C0.939977 9.78969 1.01342 9.67867 1.05014 9.59793C1.03242 9.55949 1.00715 9.52868 0.977281 9.50904C0.947409 9.48941 0.914127 9.48176 0.881228 9.48693C0.829823 9.48693 0.668257 9.48691 0.668257 9.40617C0.698432 9.28942 0.747998 9.18392 0.813009 9.09808C0.87802 9.01224 0.956695 8.94842 1.04279 8.91165C1.24107 8.841 1.82856 8.53823 1.82856 8.40702C1.82856 8.27582 1.902 7.85194 1.99012 8.00333C2.07824 8.15472 2.42338 8.39693 2.57025 8.21526L2.61431 8.04368C2.6804 7.81155 2.71713 7.86203 2.85666 7.97305L2.94478 8.04368H3.81867C4.1897 8.0085 4.55182 7.87122 4.8835 7.63998C4.81006 7.63998 5.05975 7.3473 5.61786 7.16563L6.20534 7.45832C6.31618 7.51869 6.43216 7.55938 6.55049 7.57943H6.63861C6.78548 7.51887 6.82955 7.36748 6.74143 7.22618C6.65331 7.08489 6.51377 6.71148 6.61658 6.67111H6.7047C6.80017 6.67111 6.93235 6.83258 6.98376 6.79221L7.31423 6.58028C7.46539 6.78158 7.63891 6.9485 7.82827 7.0748C7.90905 7.0748 8.23952 7.07482 8.15874 6.9638C8.07796 6.85278 8.15873 6.63073 8.32763 6.46925C8.60756 6.31714 8.90844 6.25166 9.20887 6.27749C9.31902 6.27749 9.77433 6.27749 9.94323 6.27749C10.2401 6.26937 10.537 6.2896 10.8318 6.33804C11.0668 6.42887 11.5221 5.85361 11.647 5.87379C11.7718 5.89398 12.0068 6.21694 12.0288 6.25731C12.0508 6.29768 12.1463 6.33805 12.183 6.25731V5.5811C12.5743 5.67375 12.9581 5.81914 13.3286 6.0151L13.6371 5.81324L13.9161 5.62148C14.2518 5.58222 14.5839 5.49771 14.9075 5.36917C15.0691 5.27833 15.4509 5.64165 15.5317 5.61138V5.55082L15.5684 5.44992C15.7435 5.43011 15.9197 5.45058 16.0898 5.51048H16.5451C16.8242 5.42974 17.1546 5.3288 17.2795 5.30861C17.4043 5.28843 17.9037 5.23796 18.124 5.20768C18.5341 5.15542 18.9461 5.13858 19.3577 5.15723C19.7711 5.09554 20.1809 4.99436 20.5841 4.85444C20.9166 4.88815 21.2504 4.88815 21.5828 4.85444C21.693 4.76361 22.1189 4.95536 22.2217 4.85444C22.3245 4.75351 22.6844 4.94527 22.7505 4.85444C22.8166 4.76361 23.0516 4.65259 23.125 4.73333C23.2788 4.86567 23.4577 4.9324 23.639 4.92509C23.9231 4.86306 24.2109 4.83939 24.4983 4.85444C24.7112 4.85444 25.3354 4.79388 25.4896 4.85444C25.7366 4.84446 25.9824 4.80394 26.224 4.73333C26.3342 4.67278 26.8041 4.59206 27.0171 4.5315C27.3577 4.59904 27.6893 4.73506 28.0011 4.93519C28.1407 4.99575 28.3022 4.52139 28.3757 4.48102H28.4124L28.7208 4.66271C28.9351 4.58127 29.1459 4.48355 29.3524 4.37002C29.5286 4.44066 29.7269 4.61222 29.8664 4.57185L30.0353 4.5113C30.1742 4.56912 30.3224 4.56912 30.4613 4.5113C30.6926 4.45758 30.9301 4.48538 31.1516 4.59205H31.3278H31.4526C31.5922 4.59205 31.8639 4.51131 32.0548 4.49112C32.4571 4.4699 32.8585 4.55557 33.2371 4.74343L33.5309 4.44067C33.6998 4.27919 34.0449 4.55169 34.2652 4.27919C34.2652 4.27919 34.4488 4.3801 34.5443 4.42047L34.9849 4.56178C35.3562 4.52274 35.7219 4.41407 36.0718 4.23881C36.1819 4.13788 36.5858 4.30946 36.6739 4.23881C36.7621 4.16816 37.1072 4.42047 37.166 4.45074C37.2247 4.48102 37.4891 4.45075 37.6874 4.55167C38.1184 4.50558 38.5474 4.42808 38.9725 4.31954L39.2295 4.61223H39.2736C39.3384 4.6217 39.404 4.61221 39.4661 4.58438C39.5281 4.55655 39.5851 4.511 39.6334 4.45074C39.7752 4.31631 39.9394 4.23303 40.1107 4.20853C40.5339 4.20783 40.9563 4.25507 41.3738 4.34981L41.6896 3.9865C41.7631 3.89566 42.0274 4.03696 42.167 3.9865L42.4754 3.82501C42.6909 3.97244 42.9175 4.08749 43.151 4.16815C43.3707 4.13704 43.5922 4.13704 43.8119 4.16815L43.9441 4.24891C44.113 4.35993 44.1938 3.82502 44.4141 4.17826C44.4141 4.17826 44.6638 4.03695 44.7886 4.03695H44.9869L45.4789 4.19843C45.545 4.19843 45.9856 4.19843 46.25 4.19843C46.5144 4.19843 47.2047 3.87547 47.2781 3.91584C47.4889 4.04331 47.6926 4.19173 47.8876 4.35991L48.0712 4.01677L48.3576 3.50204C48.736 3.70458 49.1236 3.87314 49.5179 4.00667C49.9227 3.99744 50.324 3.90211 50.7076 3.72408C50.8838 3.63325 51.3758 3.63326 51.5521 3.5727L51.6696 3.67363L51.7944 3.77456C51.8578 3.85328 51.9403 3.89687 52.0257 3.89687C52.1112 3.89687 52.1936 3.85328 52.2571 3.77456L52.3746 3.64335C52.475 3.6221 52.5775 3.6546 52.661 3.73418C52.7417 3.81492 53.0649 3.96633 53.153 3.87549C53.4814 3.80359 53.816 3.80359 54.1444 3.87549C54.2912 3.92596 54.6437 3.87547 54.7833 3.94612C54.9798 3.94253 55.176 3.9223 55.3708 3.88557C55.6207 3.89353 55.8695 3.8388 56.1051 3.72408C56.2593 3.62316 56.9129 3.93604 57.214 3.9966L57.4123 3.66353C57.4123 3.66353 57.5444 3.66353 57.6032 3.66353L58.0071 3.73418C58.4025 3.81177 58.8054 3.77396 59.1894 3.62318C59.395 3.48189 60.1661 3.85528 60.4231 3.84519L60.6361 3.78463L60.8344 3.72408C61.0982 3.70467 61.3607 3.66084 61.6202 3.59287C61.918 3.62482 62.2091 3.73086 62.4794 3.90577H62.5308L63.1109 3.61308C63.7865 3.66354 64.4695 3.68373 64.6384 3.68373C65.0029 3.67759 65.3647 3.77018 65.7032 3.95622L65.9308 3.50204L66.0337 3.30021C66.2696 3.36974 66.4938 3.49986 66.6946 3.68373C66.7754 3.79475 67.2013 3.50205 67.3114 3.47177C67.4216 3.44149 67.7961 3.67362 67.9063 3.6938L67.9577 3.63325L68.2367 3.36077C68.5048 3.52554 68.7856 3.64743 69.0739 3.72408C69.3668 3.7188 69.6571 3.6472 69.9331 3.51215C70.0653 3.43141 70.5206 3.60298 70.594 3.5727C70.7345 3.50654 70.8678 3.41491 70.9906 3.30021C71.064 3.20938 71.3578 3.36075 71.4312 3.24973L71.6515 3.37087L71.9012 3.51215C72.2684 3.43141 72.7604 3.31031 72.9954 3.23966C73.3145 3.24064 73.6333 3.26758 73.9501 3.32039C74.1978 3.31259 74.4451 3.35336 74.6844 3.44149H74.8607H74.9268C75.0296 3.31029 75.1324 3.31029 75.1544 3.44149C75.1765 3.57269 75.3747 3.89566 75.5216 3.79474C75.6685 3.69381 76.1164 3.40114 76.256 3.33049C76.6196 3.27449 76.9866 3.27449 77.3502 3.33049C77.4897 3.33049 77.967 3.08826 78.1506 3.06807C78.4724 3.04874 78.7949 3.07581 79.1126 3.14883C79.5674 3.19225 80.0238 3.19225 80.4785 3.14883L80.7355 2.96714L80.9632 2.80566L81.3524 3.16901C81.6922 3.18327 82.0316 3.12539 82.3585 2.99742C82.8311 2.90771 83.3105 2.90771 83.7832 2.99742C84.0514 3.04354 84.3227 3.04354 84.5909 2.99742C84.9315 2.93169 85.2752 2.90133 85.6191 2.90659C85.8941 2.88655 86.1658 2.81526 86.4268 2.69466C86.537 2.6341 86.8308 2.85613 86.8675 2.87631C87.0338 2.78426 87.2058 2.71332 87.3815 2.66438C87.5431 2.66438 87.712 2.80566 87.8662 2.77538H88.0865C88.3331 2.75313 88.5783 2.70933 88.8209 2.64421C88.9824 2.64421 89.3643 2.82587 89.401 2.73503L89.4524 2.66438L89.4891 2.61393C89.6836 2.59622 89.879 2.61661 90.0693 2.67448C90.319 2.73504 91.4352 2.56345 91.6261 2.624L91.7803 2.70476L91.9712 2.81576C92.1589 2.69287 92.372 2.66431 92.5734 2.73503L92.7056 2.68455L92.9259 2.59372C93.1188 2.42814 93.3457 2.35372 93.5721 2.38179C93.8276 2.43666 94.0878 2.43666 94.3433 2.38179C94.5523 2.33627 94.7632 2.30928 94.9748 2.30103C95.1848 2.29521 95.3945 2.32575 95.599 2.39189C95.7165 2.44236 96.0616 2.34143 96.1057 2.39189C96.2686 2.52758 96.4634 2.571 96.6491 2.513C96.8547 2.44235 98.0518 2.513 98.4704 2.45245C98.9253 2.39191 99.3751 2.27366 99.8142 2.0992L100.02 2.16986L100.416 2.29096C100.886 2.29096 101.422 2.29096 101.599 2.29096L101.775 2.20013L102.003 2.079C102.278 2.06976 102.553 2.09341 102.825 2.14965C102.979 2.20011 103.493 2.09919 103.626 2.14965H103.743H103.861C104.165 2.16258 104.469 2.14233 104.771 2.0891L105.109 2.01844L105.395 1.95789L106.034 1.85699L106.438 1.95789C106.614 1.95789 107.173 2.04874 107.327 2.0992C107.481 2.14966 107.848 2.35151 107.9 2.25058C108.017 2.12031 108.16 2.04278 108.311 2.02855C108.552 1.92374 108.797 1.83615 109.045 1.76613C109.265 1.76613 110.154 1.76613 110.514 1.70558C111.042 1.71365 111.569 1.76084 112.093 1.84689C112.254 1.84689 112.724 1.63494 112.827 1.6854C112.93 1.73587 113.136 1.6854 113.209 1.74596C113.546 1.71578 113.88 1.64487 114.208 1.53402L114.604 1.58447H114.891C115.154 1.43829 115.445 1.41005 115.72 1.50375H115.926H116.139C116.383 1.40409 116.644 1.43287 116.873 1.58447C117.028 1.72577 117.696 1.23124 118.048 1.1505L118.349 1.41292C118.411 1.41559 118.471 1.38681 118.518 1.33216L118.57 1.26151C118.629 1.11942 118.727 1.01457 118.842 0.968845C119.075 1.00021 119.305 1.0749 119.524 1.19088C119.679 1.25144 120.259 1.19087 120.398 1.27161C120.595 1.29098 120.793 1.27402 120.986 1.22116C121.264 1.22968 121.541 1.26677 121.816 1.33216C122.021 1.33216 122.763 1.17067 122.998 1.23123L123.093 1.1404C123.387 0.827532 123.49 1.35235 123.681 1.27161L123.872 1.18078C124.063 0.997497 124.277 0.864062 124.503 0.787156C124.815 0.778519 125.127 0.805543 125.436 0.867913C125.728 0.923477 126.025 0.923477 126.317 0.867913C126.605 0.839378 126.894 0.887335 127.169 1.00919C127.505 1.05808 127.845 1.03082 128.175 0.928466L128.484 1.07985C128.602 1.14523 128.732 1.15799 128.856 1.11635C128.98 1.07471 129.091 0.980781 129.174 0.847739L129.805 0.716532C130.457 0.958755 131.144 0.958755 131.796 0.716532C132.045 0.645884 132.273 1.13032 132.53 0.716532C132.611 0.585329 133.022 0.655977 133.264 0.716532H133.404C133.532 0.800076 133.674 0.834902 133.815 0.817432C133.954 0.7439 134.089 0.656208 134.219 0.555048C134.366 0.44403 134.77 0.84772 134.909 0.827535C135.091 0.763331 135.27 0.685864 135.445 0.595426C135.628 0.655096 135.802 0.757502 135.959 0.89819H136.048C136.18 0.89819 136.319 0.74679 136.459 0.696327L136.701 0.6156L137.289 0.857811C137.409 0.853583 137.527 0.812193 137.634 0.736706C137.722 0.666058 138.038 0.817443 138.111 0.797258H138.17C138.251 0.736703 138.324 0.575232 138.383 0.585324C138.552 0.585324 138.721 0.736696 138.882 0.726603C139.044 0.716511 139.286 0.565121 139.499 0.534843H139.683C139.901 0.582537 140.124 0.56184 140.336 0.47429L140.498 0.625703L140.608 0.726603L141.394 0.817432C141.791 0.75816 142.191 0.731214 142.591 0.736706C142.76 0.827538 143.692 0.736722 144.28 0.847739L144.838 0.565119C145.026 0.479649 145.23 0.479649 145.418 0.565119L145.69 0.726603C145.942 0.625707 146.187 0.49749 146.424 0.343114H146.556C146.702 0.384329 146.841 0.459396 146.967 0.565119L147.041 0.6156C147.369 0.742228 147.707 0.813393 148.047 0.827535C148.631 0.755978 149.208 0.610713 149.773 0.393564C149.82 0.437928 149.865 0.48863 149.905 0.544945C150.119 0.563056 150.333 0.546128 150.544 0.494495C150.928 0.421633 151.316 0.387893 151.704 0.393564C152.054 0.488551 152.398 0.623581 152.732 0.797258C152.901 0.888091 153.467 0.655963 153.562 0.797258C153.658 0.938554 154.296 0.49448 154.553 0.353185L154.855 0.676153L154.987 0.817432C155.44 0.674091 155.902 0.586301 156.367 0.555048H156.698H157.043C157.416 0.666841 157.804 0.610198 158.152 0.393564L158.468 0.706429C158.71 0.938557 158.996 0.262374 159.327 0.595426C159.434 0.709413 159.567 0.76611 159.702 0.75497C159.837 0.74383 159.965 0.665585 160.061 0.534843C160.061 0.534843 160.135 0.534843 160.157 0.534843L160.384 0.645877C160.634 0.645877 160.913 0.746807 161.008 0.777084C161.258 0.730481 161.504 0.652773 161.743 0.544945H161.926H162.308L163.85 0.484393H164.247H164.497C164.768 0.575225 165.099 0.666049 165.231 0.696327C165.429 0.683004 165.624 0.632062 165.811 0.544945C165.921 0.544945 166.259 0.706439 166.355 0.716532L166.56 0.302735C166.891 0.24218 167.559 0.363283 167.669 0.484393Z" fill="#52FF63"/>
</g>
<defs>
<clipPath id="clip0_1_153">
<rect width="185" height="12" fill="white"/>
</clipPath>
</defs>
</svg>
