<svg width="28" height="28" viewBox="0 0 28 28" fill="none" xmlns="http://www.w3.org/2000/svg">
<path d="M2.075 27.5C1.825 27.5 1.5625 27.494 1.2875 27.482C1.0125 27.469 0.75 27.45 0.5 27.425V18.65L8 17.15L12.35 21.5C14.25 20.35 15.994 18.9875 17.582 17.4125C19.169 15.8375 20.4875 14.15 21.5375 12.35L17.2625 8.0375L18.65 0.5H27.425C27.475 0.75 27.5 1.0125 27.5 1.2875V2.075C27.5 5.3 26.781 8.4435 25.343 11.5055C23.906 14.5685 22.006 17.2875 19.643 19.6625C17.281 22.0375 14.569 23.9375 11.507 25.3625C8.444 26.7875 5.3 27.5 2.075 27.5ZM22.9625 9.5C23.3875 8.525 23.7125 7.5375 23.9375 6.5375C24.1625 5.5375 24.3375 4.525 24.4625 3.5H21.125L20.4875 7.025L22.9625 9.5ZM9.5375 22.925L7.025 20.4125L3.5 21.125V24.425C4.525 24.35 5.544 24.1875 6.557 23.9375C7.569 23.6875 8.5625 23.35 9.5375 22.925Z" fill="#1D1D1D" fill-opacity="0.8"/>
</svg>
