<svg width="286" height="12" viewBox="0 0 286 12" fill="none" xmlns="http://www.w3.org/2000/svg">
<g clip-path="url(#clip0_1_51)">
<path d="M259.207 0.484454C259.378 0.595472 259.661 0.484463 259.854 0.27252C260.093 0.534925 260.297 0.161484 260.388 0.222039C260.717 0.474352 260.933 0.444074 261.285 0.222039C261.376 0.161484 261.807 0.47437 262.114 0.524833H262.341C262.641 0.437375 262.958 0.406443 263.272 0.434004L264.838 0.686317L265.168 0.454178C265.2 0.441369 265.235 0.434743 265.27 0.434743C265.305 0.434743 265.34 0.441369 265.372 0.454178C265.731 0.609131 266.113 0.717881 266.507 0.777145H266.814C267.109 0.59548 267.325 0.777143 267.279 1.09001L267.881 0.676214L268.38 0.333072C268.855 0.492215 269.369 0.534064 269.868 0.454178C270.197 0.353252 271.185 0.807402 271.536 0.787217C272.175 0.85991 272.806 0.981487 273.421 1.15056V0.767043C273.498 0.719637 273.589 0.694905 273.682 0.696388L274.136 0.958803C274.6 0.866116 275.084 0.904929 275.521 1.06981C275.714 1.2111 276.441 0.90833 276.657 0.978977C277.019 1.10099 277.413 1.12901 277.792 1.05973C278.545 0.971463 279.306 0.954529 280.062 1.00925L280.71 1.24139C280.914 1.32213 281.311 1.09001 281.641 1.05973H281.879C282.111 1.12824 282.362 1.12824 282.594 1.05973L283.184 1.4836C283.888 1.26157 284.547 1.30194 284.649 1.58453C284.751 1.86712 285.307 2.52314 285.455 2.50296C285.603 2.48277 285.977 2.50296 286 2.57361C286.023 2.64426 285.864 2.93694 285.625 3.04796C285.387 3.15898 285.376 4.05722 285.001 4.50129L285.126 5.07654V5.20774C285.126 5.40959 285.024 5.53071 284.921 5.47016C284.853 5.43041 284.77 5.41558 284.69 5.42873C284.61 5.44189 284.538 5.48202 284.49 5.54081C285.137 5.77294 284.377 6.15646 284.683 6.42896C284.702 6.45044 284.713 6.47712 284.713 6.50464C284.713 6.53215 284.702 6.55886 284.683 6.58034L284.195 6.96386C284.195 7.25654 283.65 7.56939 283.06 7.67032L282.503 7.2969L282.412 7.23635C281.998 7.3797 281.562 7.46812 281.118 7.49876C280.766 7.49876 279.597 7.42812 279.268 7.49876H278.666C278.396 7.45047 278.123 7.41676 277.849 7.39783C277.573 7.37779 277.296 7.37779 277.02 7.39783C276.322 7.45911 275.621 7.48605 274.92 7.47856C274.102 7.47856 271.514 7.47858 271.094 7.40794C270.471 7.45523 269.855 7.55663 269.255 7.7107H269.152H268.539C267.956 7.61156 267.358 7.59455 266.768 7.66025C266.462 7.7309 265.463 7.51894 265.213 7.54921C264.722 7.59512 264.228 7.59512 263.737 7.54921C263.431 7.48866 261.943 7.61986 261.217 7.64004H258.56C258.14 7.64004 257.504 7.75106 257.368 7.64004C257.073 7.31708 256.664 7.77124 256.449 7.47856C256.449 7.4281 256.153 7.4281 256.017 7.47856C255.881 7.52902 255.257 7.70061 255.132 7.61987L254.689 7.32718C254.547 7.42503 254.384 7.49608 254.211 7.536C254.037 7.57592 253.856 7.58387 253.679 7.55932C253.451 7.47858 252.963 7.4382 252.702 7.36756C252.441 7.29691 251.567 7.5694 251.385 7.45839C251.204 7.34737 250.352 7.72078 250.102 7.76115C249.529 7.66773 248.964 7.53958 248.411 7.37763L247.9 7.65015L247.548 7.85198C247.02 7.79147 246.496 7.70045 245.981 7.57949C245.608 7.49506 245.228 7.43102 244.846 7.38773C244.021 7.51494 243.216 7.73189 242.451 8.03367L242.008 7.47856C241.938 7.45101 241.863 7.43679 241.786 7.43679C241.71 7.43679 241.635 7.45101 241.565 7.47856C241.077 7.8217 240.521 7.24645 240.021 7.55932C239.811 7.66407 239.568 7.70649 239.329 7.68042C238.916 7.59775 238.499 7.53375 238.08 7.48866H237.705C237.337 7.58529 236.954 7.63289 236.57 7.62994C236.154 7.62122 235.74 7.5807 235.332 7.50884C235.128 7.4281 234.379 7.73089 234.129 7.81163C233.879 7.89237 233.209 7.54921 232.994 7.64004C232.406 7.70856 231.81 7.70856 231.223 7.64004H230.757C230.371 7.64004 229.985 7.75107 229.622 7.74097H228.907C227.968 7.65581 227.024 7.61539 226.08 7.61987L225.433 7.78135L224.865 7.92263C224.116 7.80024 223.356 7.74613 222.595 7.76115H216.453C215.84 7.76115 215.215 7.76115 214.602 7.76115H214.228L213.331 7.93273C213.251 7.93273 212.684 7.87218 212.195 7.81163C211.707 7.75107 209.13 7.91255 208.937 7.81163C208.64 7.77603 208.34 7.75582 208.04 7.75108C207.847 7.75108 206.905 7.90245 206.405 7.92263H198.458L195.121 8.00339C193.198 8.05572 191.281 8.20058 189.376 8.43736L189.229 8.33643L188.843 8.09422C188.666 8.17092 188.472 8.21077 188.275 8.21077C188.078 8.21077 187.884 8.17092 187.707 8.09422L187.231 8.36671C186.981 8.508 186.447 8.36671 186.038 8.36671H185.346C184.712 8.35321 184.078 8.38698 183.45 8.46764C182.845 8.4644 182.249 8.34384 181.702 8.11439L181.475 8.38688L181.134 8.7704C180.813 8.54406 180.408 8.43249 179.999 8.45753C179.373 8.51923 178.744 8.55292 178.114 8.55847C177.461 8.61194 176.806 8.63553 176.15 8.62912H175.673H175.163C174.636 8.63583 174.112 8.68651 173.596 8.7805C173.048 8.83616 172.505 8.92723 171.972 9.05299L171.427 8.90161C170.923 8.8353 170.411 8.8353 169.906 8.90161H169.395C168.868 8.90427 168.344 8.97567 167.84 9.11354H167.318C166.416 8.96638 165.497 8.91894 164.582 8.97226C162.966 8.99471 161.359 9.18093 159.791 9.52734L159.427 9.1943C159.337 9.12365 158.849 9.3154 158.542 9.34568H158.235C157.837 9.328 157.448 9.22777 157.1 9.05299C156.816 8.89151 155.761 9.3154 155.42 9.3154C155.079 9.3154 153.921 9.3154 153.581 9.3154C152.935 9.32903 152.291 9.37622 151.651 9.45671H151.299C150.97 9.45671 150.629 9.32549 150.3 9.33558H149.664C148.972 9.33558 147.916 9.33558 147.303 9.33558C146.69 9.33558 144.896 9.57782 144.521 9.51727H144.181H143.693C143.202 9.56866 142.707 9.56866 142.217 9.51727C141.687 9.59157 141.164 9.69607 140.65 9.83013C140.287 9.83013 138.936 9.83013 138.516 9.83013C138.096 9.83013 136.245 9.83013 135.394 9.89069C134.542 9.95124 131.454 10.0219 130.557 10.032C129.66 10.0421 127.151 10.032 126.947 10.1531C126.743 10.2742 125.925 10.032 125.687 10.0017C125.449 9.97141 124.552 10.2641 124.12 10.2843C123.689 10.3045 121.963 10.2843 121.259 10.2843C120.555 10.2843 118.149 10.2843 117.468 10.2843C116.786 10.2843 113.88 10.4054 112.529 10.4054H106.785L106.512 10.6173C106.24 10.8091 106.013 10.1834 105.649 10.6173L105.581 10.6981C105.225 10.6475 104.862 10.6647 104.514 10.7486C104.264 10.8293 103.311 10.5366 102.732 10.6476H98.1904C93.7969 10.6476 89.7439 10.5669 89.1876 10.476L88.7563 10.8091L88.6995 10.8596L87.7118 10.799C87.2606 10.734 86.8006 10.734 86.3494 10.799C86.2359 10.8797 85.7364 10.6981 85.6002 10.799C85.2257 10.8583 84.8447 10.8786 84.4649 10.8596H84.1697L82.7847 10.9302H82.4782C82.2186 10.9533 81.958 10.8963 81.7402 10.7687C81.6834 10.6779 81.0477 10.8697 80.7639 10.8697H80.4801C80.3552 10.8697 80.1735 10.7183 80.1054 10.7486L79.061 11.1724C77.8462 11.0513 75.8368 10.9605 74.5993 10.9605H70.6826C70.0349 10.9797 69.3865 10.9629 68.7413 10.91C68.0085 11.0228 67.2925 11.209 66.6069 11.4651L66.2436 11.0109C66.1774 10.9851 66.1059 10.9718 66.0336 10.9718C65.9613 10.9718 65.8898 10.9851 65.8236 11.0109L65.3127 11.2734C64.6168 11.1574 63.9063 11.1268 63.2011 11.1825H62.6675C62.0544 11.1825 61.4414 11.1825 60.8283 11.1825H53.1993C52.539 11.1882 51.879 11.1545 51.2238 11.0816C50.7584 11.021 49.4188 11.344 49.2598 11.2935C48.6172 11.2049 47.9687 11.1543 47.3185 11.1421C46.5919 11.1421 44.4916 11.3743 44.2419 11.3642C43.8259 11.3708 43.4105 11.3336 43.0044 11.2532C42.8114 11.1523 41.9713 11.4046 41.7329 11.4348C41.2864 11.366 40.8349 11.3255 40.3819 11.3137C40.0754 11.3743 38.9969 11.4247 38.7017 11.4651C38.4065 11.5055 37.4529 11.2734 37.2372 11.3137C36.6261 11.3685 36.0123 11.3954 35.3981 11.3945C34.8304 11.3945 32.5371 11.344 31.5494 11.2633L30.698 11.6165L30.5504 11.6872C30.1059 11.6399 29.6581 11.623 29.2108 11.6367L28.8929 11.4954L28.3707 11.2734C27.9726 11.458 27.5238 11.5385 27.0764 11.5055L26.7018 11.6064L26.2931 11.7073C25.836 11.6733 25.3765 11.6733 24.9194 11.7073C24.6923 11.7073 23.0462 11.4247 21.6384 11.344L20.5031 11.8385L20.0831 12.0202C19.6195 11.9359 19.1484 11.8887 18.6754 11.8789C18.3688 11.8789 17.3017 11.8789 16.9951 11.8789C16.6886 11.8789 15.9847 11.7679 15.8598 11.8083C15.4518 11.8382 15.0418 11.8382 14.6338 11.8083C14.2364 11.8083 12.9308 11.8083 12.6016 11.7578C12.2724 11.7073 11.3074 11.7578 11.0349 11.7578C10.7624 11.7578 10.138 12.0101 10.0586 11.9496C9.9791 11.889 9.60444 11.7376 9.50226 11.8184C9.16724 11.9575 8.80459 12.0364 8.43513 12.0505H6.16457C6.02833 11.8688 5.86936 11.7174 5.8126 11.7174C5.75583 11.7174 5.58555 11.7982 5.5742 11.8991C5.12935 11.9874 4.66806 11.9874 4.22321 11.8991H3.36042C2.91766 11.8991 2.61112 11.8991 2.70194 11.8486C2.79276 11.7982 2.94036 11.6468 2.81548 11.5156C2.67603 11.2694 2.62453 10.9912 2.66788 10.7183C2.66788 10.5568 2.77005 10.0723 2.5884 10.0723C2.40676 10.0723 1.99807 10.1228 2.03213 10.1834C2.06619 10.2439 2.03213 10.4256 2.03213 10.4458C1.83104 10.4241 1.64153 10.3504 1.48718 10.2338C1.32824 10.1228 0.522192 9.87051 0.3519 9.7393C0.181608 9.6081 -0.102207 9.0732 0.215672 9.01264C0.53355 8.95209 0.885486 9.64846 1.10119 9.78975H1.36232C1.45314 9.78975 1.56668 9.67873 1.62344 9.59799C1.59605 9.55955 1.55699 9.52874 1.51081 9.5091C1.46463 9.48947 1.41318 9.48182 1.36232 9.48699C1.28285 9.48699 1.03308 9.48697 1.03308 9.40623C1.07972 9.28948 1.15635 9.18398 1.25685 9.09814C1.35736 9.0123 1.47898 8.94848 1.61208 8.91171C1.91861 8.84106 2.82684 8.53829 2.82684 8.40708C2.82684 8.27588 2.94037 7.852 3.0766 8.00339C3.21284 8.15478 3.74639 8.39699 3.97345 8.21532L4.04156 8.04374C4.14374 7.81161 4.20052 7.8621 4.41623 7.97311L4.55245 8.04374H5.90344C6.47704 8.00856 7.03685 7.87129 7.54961 7.64004C7.43608 7.64004 7.82208 7.34736 8.68489 7.16569L9.5931 7.45839C9.76445 7.51875 9.94376 7.55944 10.1267 7.57949H10.2629C10.49 7.51894 10.5581 7.36754 10.4219 7.22625C10.2856 7.08495 10.0699 6.71154 10.2289 6.67117H10.3651C10.5127 6.67117 10.717 6.83265 10.7965 6.79228L11.3074 6.58034C11.5411 6.78164 11.8093 6.94856 12.1021 7.07486C12.2269 7.07486 12.7378 7.07488 12.613 6.96386C12.4881 6.85284 12.6129 6.63079 12.874 6.46931C13.3068 6.3172 13.772 6.25172 14.2364 6.27755C14.4067 6.27755 15.1106 6.27755 15.3717 6.27755C15.8306 6.26943 16.2896 6.28966 16.7454 6.3381C17.1087 6.42893 17.8125 5.85367 18.0055 5.87385C18.1985 5.89404 18.5618 6.217 18.5959 6.25737C18.6299 6.29774 18.7775 6.33811 18.8343 6.25737V5.58116C19.4392 5.67381 20.0324 5.8192 20.6053 6.01516L21.0821 5.8133L21.5136 5.62154C22.0325 5.58229 22.5459 5.49777 23.0462 5.36923C23.296 5.27839 23.8863 5.64172 24.0112 5.61144V5.55089L24.0679 5.44998C24.3385 5.43017 24.611 5.45064 24.874 5.51054H25.5778C26.0093 5.4298 26.5201 5.32886 26.7131 5.30867C26.9061 5.28849 27.6781 5.23802 28.0187 5.20774C28.6527 5.15549 29.2897 5.13864 29.926 5.15729C30.5651 5.09561 31.1986 4.99442 31.8219 4.8545C32.3359 4.88822 32.8519 4.88822 33.3659 4.8545C33.5362 4.76367 34.1946 4.95542 34.3536 4.8545C34.5125 4.75357 35.0688 4.94533 35.171 4.8545C35.2732 4.76367 35.6365 4.65265 35.75 4.73339C35.9877 4.86573 36.2643 4.93247 36.5447 4.92515C36.9838 4.86312 37.4287 4.83945 37.873 4.8545C38.2022 4.8545 39.1672 4.79394 39.4056 4.8545C39.7873 4.84453 40.1673 4.804 40.5409 4.73339C40.7112 4.67284 41.4377 4.59212 41.767 4.53156C42.2936 4.5991 42.8062 4.73512 43.2882 4.93526C43.5039 4.99581 43.7537 4.52145 43.8672 4.48108H43.924L44.4008 4.66277C44.7321 4.58133 45.058 4.48361 45.3772 4.37008C45.6496 4.44073 45.9562 4.61228 46.1719 4.57191L46.433 4.51136C46.6477 4.56919 46.8768 4.56919 47.0914 4.51136C47.4491 4.45765 47.8163 4.48544 48.1586 4.59211H48.4311H48.6241C48.8398 4.59211 49.2598 4.51137 49.555 4.49118C50.1769 4.46996 50.7975 4.55563 51.3828 4.7435L51.8369 4.44073C52.098 4.27925 52.6316 4.55175 52.9722 4.27925C52.9722 4.27925 53.256 4.38016 53.4036 4.42053L54.0848 4.56184C54.6588 4.5228 55.2241 4.41414 55.765 4.23887C55.9353 4.13795 56.5597 4.30952 56.6959 4.23887C56.8321 4.16822 57.3657 4.42053 57.4566 4.4508C57.5474 4.48108 57.9561 4.45081 58.2626 4.55174C58.929 4.50564 59.5922 4.42815 60.2493 4.3196L60.6467 4.61229H60.7148C60.8151 4.62176 60.9165 4.61228 61.0124 4.58445C61.1083 4.55662 61.1964 4.51107 61.2711 4.4508C61.4903 4.31637 61.7441 4.23309 62.009 4.20859C62.6632 4.20789 63.3163 4.25513 63.9617 4.34987L64.4499 3.98656C64.5634 3.89573 64.9721 4.03702 65.1878 3.98656L65.6646 3.82507C65.9979 3.97251 66.3481 4.08755 66.7091 4.16822C67.0488 4.1371 67.3912 4.1371 67.7308 4.16822L67.9352 4.24897C68.1963 4.35999 68.3212 3.82508 68.6618 4.17832C68.6618 4.17832 69.0478 4.03701 69.2408 4.03701H69.5473L70.3079 4.19849C70.4101 4.19849 71.0913 4.19849 71.5 4.19849C71.9087 4.19849 72.9758 3.87553 73.0894 3.9159C73.4152 4.04337 73.7301 4.19179 74.0317 4.35998L74.3155 4.01683L74.7582 3.50211C75.3432 3.70464 75.9424 3.8732 76.552 4.00673C77.1778 3.9975 77.7982 3.90217 78.3911 3.72414C78.6636 3.63331 79.4242 3.63332 79.6967 3.57276L79.8784 3.67369L80.0713 3.77462C80.1694 3.85335 80.2968 3.89693 80.429 3.89693C80.5611 3.89693 80.6885 3.85335 80.7866 3.77462L80.9682 3.64342C81.1234 3.62216 81.2819 3.65467 81.411 3.73424C81.5359 3.81499 82.0354 3.96639 82.1716 3.87555C82.6793 3.80365 83.1966 3.80365 83.7043 3.87555C83.9313 3.92602 84.4762 3.87553 84.6919 3.94618C84.9958 3.94259 85.2991 3.92237 85.6002 3.88563C85.9865 3.89359 86.3712 3.83887 86.7355 3.72414C86.9739 3.62322 87.9843 3.93611 88.4497 3.99666L88.7563 3.66359C88.7563 3.66359 88.9606 3.66359 89.0514 3.66359L89.6758 3.73424C90.2871 3.81183 90.9099 3.77402 91.5036 3.62324C91.8215 3.48195 93.0135 3.85534 93.4109 3.84525L93.7401 3.7847L94.0466 3.72414C94.4544 3.70474 94.8603 3.6609 95.2614 3.59293C95.7218 3.62489 96.1719 3.73092 96.5897 3.90583H96.6692L97.566 3.61314C98.6105 3.6636 99.6663 3.68379 99.9274 3.68379C100.491 3.67765 101.05 3.77024 101.574 3.95628L101.925 3.50211L102.084 3.30027C102.449 3.3698 102.796 3.49993 103.106 3.68379C103.231 3.79481 103.89 3.50211 104.06 3.47183C104.23 3.44155 104.809 3.67368 104.979 3.69387L105.059 3.63331L105.49 3.36083C105.905 3.5256 106.339 3.64749 106.785 3.72414C107.237 3.71886 107.686 3.64726 108.113 3.51221C108.317 3.43147 109.021 3.60304 109.135 3.57276C109.352 3.5066 109.558 3.41497 109.748 3.30027C109.861 3.20944 110.315 3.36081 110.429 3.24979L110.769 3.37093L111.155 3.51221C111.723 3.43147 112.484 3.31037 112.847 3.23972C113.34 3.2407 113.833 3.26764 114.323 3.32045C114.706 3.31265 115.088 3.35342 115.458 3.44155H115.731H115.833C115.992 3.31035 116.151 3.31035 116.185 3.44155C116.219 3.57276 116.525 3.89572 116.752 3.7948C116.979 3.69387 117.672 3.4012 117.888 3.33055C118.45 3.27456 119.017 3.27456 119.579 3.33055C119.795 3.33055 120.533 3.08832 120.817 3.06814C121.314 3.0488 121.813 3.07588 122.304 3.14889C123.007 3.19231 123.712 3.19231 124.415 3.14889L124.813 2.9672L125.165 2.80572L125.766 3.16907C126.292 3.18333 126.816 3.12545 127.322 2.99748C128.052 2.90777 128.794 2.90777 129.524 2.99748C129.939 3.0436 130.358 3.0436 130.773 2.99748C131.299 2.93175 131.831 2.90139 132.362 2.90665C132.788 2.88661 133.208 2.81532 133.611 2.69472C133.781 2.63416 134.236 2.85619 134.292 2.87637C134.549 2.78432 134.815 2.71338 135.087 2.66444C135.337 2.66444 135.598 2.80572 135.836 2.77544H136.177C136.558 2.75319 136.937 2.7094 137.312 2.64427C137.562 2.64427 138.152 2.82593 138.209 2.7351L138.289 2.66444L138.345 2.61399C138.646 2.59628 138.948 2.61667 139.242 2.67454C139.628 2.7351 141.354 2.56351 141.649 2.62406L141.887 2.70482L142.183 2.81582C142.473 2.69293 142.802 2.66437 143.113 2.7351L143.318 2.68461L143.658 2.59379C143.957 2.4282 144.307 2.35378 144.657 2.38185C145.052 2.43672 145.455 2.43672 145.85 2.38185C146.173 2.33633 146.499 2.30934 146.826 2.30109C147.151 2.29527 147.475 2.32582 147.791 2.39195C147.972 2.44242 148.506 2.34149 148.574 2.39195C148.826 2.52764 149.127 2.57106 149.414 2.51306C149.732 2.44241 151.583 2.51306 152.23 2.45251C152.933 2.39198 153.629 2.27372 154.307 2.09926L154.625 2.16992L155.238 2.29102C155.965 2.29102 156.794 2.29102 157.066 2.29102L157.339 2.20019L157.691 2.07906C158.116 2.06982 158.541 2.09347 158.962 2.14971C159.2 2.20018 159.995 2.09925 160.199 2.14971H160.381H160.563C161.033 2.16264 161.504 2.14239 161.97 2.08916L162.493 2.01851L162.936 1.95795L163.923 1.85705L164.548 1.95795C164.82 1.95795 165.683 2.0488 165.921 2.09926C166.16 2.14973 166.727 2.35157 166.807 2.25064C166.988 2.12037 167.21 2.04285 167.443 2.02861C167.816 1.92381 168.195 1.83621 168.578 1.76619C168.918 1.76619 170.292 1.76619 170.848 1.70564C171.664 1.71372 172.479 1.7609 173.289 1.84695C173.539 1.84695 174.266 1.635 174.425 1.68547C174.584 1.73593 174.901 1.68546 175.015 1.74602C175.536 1.71584 176.052 1.64493 176.559 1.53408L177.172 1.58453H177.615C178.022 1.43836 178.471 1.41012 178.898 1.50381H179.215H179.545C179.921 1.40415 180.326 1.43293 180.68 1.58453C180.918 1.72583 181.951 1.2313 182.496 1.15056L182.962 1.41298C183.057 1.41565 183.15 1.38687 183.223 1.33222L183.302 1.26157C183.395 1.11948 183.545 1.01463 183.723 0.968906C184.084 1.00027 184.439 1.07496 184.778 1.19094C185.017 1.2515 185.914 1.19093 186.129 1.27167C186.433 1.29104 186.739 1.27408 187.038 1.22122C187.468 1.22974 187.896 1.26683 188.32 1.33222C188.638 1.33222 189.785 1.17074 190.148 1.23129L190.296 1.14046C190.75 0.827593 190.909 1.35241 191.204 1.27167L191.499 1.18084C191.795 0.997558 192.126 0.864124 192.476 0.787217C192.958 0.778581 193.44 0.805604 193.917 0.867974C194.369 0.923538 194.828 0.923538 195.28 0.867974C195.725 0.839439 196.172 0.887396 196.597 1.00925C197.116 1.05815 197.642 1.03088 198.152 0.928527L198.629 1.07991C198.812 1.14529 199.013 1.15805 199.204 1.11641C199.396 1.07477 199.568 0.980843 199.696 0.8478L200.672 0.716593C201.68 0.958817 202.741 0.958817 203.749 0.716593C204.135 0.645945 204.487 1.13039 204.884 0.716593C205.009 0.58539 205.645 0.656038 206.019 0.716593H206.235C206.433 0.800137 206.653 0.834963 206.871 0.817493C207.086 0.743961 207.295 0.656269 207.495 0.555109C207.722 0.444091 208.347 0.847781 208.562 0.827596C208.843 0.763392 209.12 0.685925 209.391 0.595488C209.674 0.655157 209.943 0.757563 210.186 0.898251H210.322C210.527 0.898251 210.742 0.746851 210.958 0.696388L211.333 0.615662L212.241 0.857872C212.427 0.853644 212.609 0.812254 212.774 0.736767C212.911 0.666119 213.399 0.817504 213.512 0.797319H213.603C213.728 0.736764 213.842 0.575293 213.932 0.585385C214.193 0.585385 214.455 0.736757 214.704 0.726664C214.954 0.716572 215.329 0.565182 215.658 0.534904H215.942C216.279 0.582598 216.625 0.561901 216.952 0.474352L217.202 0.625764L217.372 0.726664L218.587 0.817493C219.202 0.758222 219.819 0.731275 220.437 0.736767C220.699 0.827599 222.14 0.736783 223.049 0.8478L223.911 0.56518C224.203 0.47971 224.517 0.47971 224.808 0.56518L225.228 0.726664C225.618 0.625768 225.997 0.497551 226.364 0.343175H226.568C226.793 0.38439 227.008 0.459457 227.204 0.56518L227.317 0.615662C227.824 0.742289 228.346 0.813454 228.873 0.827596C229.775 0.75604 230.668 0.610774 231.541 0.393625C231.614 0.437989 231.683 0.488691 231.745 0.545007C232.075 0.563117 232.407 0.546189 232.733 0.494556C233.327 0.421694 233.926 0.387954 234.526 0.393625C235.068 0.488612 235.599 0.623643 236.116 0.797319C236.377 0.888152 237.251 0.656024 237.399 0.797319C237.546 0.938615 238.534 0.494541 238.931 0.353246L239.397 0.676214L239.601 0.817493C240.302 0.674152 241.017 0.586362 241.735 0.555109H242.246H242.78C243.356 0.666902 243.957 0.610259 244.494 0.393625L244.982 0.70649C245.357 0.938618 245.8 0.262435 246.311 0.595488C246.476 0.709474 246.682 0.766171 246.891 0.755031C247.1 0.743891 247.297 0.665646 247.446 0.534904C247.446 0.534904 247.559 0.534904 247.593 0.534904L247.945 0.645938C248.331 0.645938 248.763 0.746868 248.91 0.777145C249.296 0.730542 249.676 0.652834 250.046 0.545007H250.329H250.92L253.304 0.484454H253.917H254.303C254.723 0.575287 255.234 0.666111 255.438 0.696388C255.744 0.683065 256.045 0.632123 256.335 0.545007C256.505 0.545007 257.028 0.7065 257.175 0.716593L257.493 0.302796C258.004 0.242241 259.037 0.363344 259.207 0.484454Z" fill="#52FF63"/>
</g>
<defs>
<clipPath id="clip0_1_51">
<rect width="286" height="12" fill="white"/>
</clipPath>
</defs>
</svg>
