<svg width="28" height="24" viewBox="0 0 28 24" fill="none" xmlns="http://www.w3.org/2000/svg">
<path d="M14.2052 24C10.4188 24 7.21164 22.8375 4.58375 20.5125C1.95585 18.1875 0.641907 15.35 0.641907 12C0.641907 8.65001 1.95585 5.81251 4.58375 3.48751C7.21164 1.16251 10.4188 5.1903e-06 14.2052 5.1903e-06C16.155 5.1903e-06 18.0199 0.356005 19.8001 1.06801C21.5803 1.78001 23.1062 2.79901 24.3777 4.12501V1.50001C24.3777 1.07501 24.5405 0.718505 24.866 0.430505C25.1915 0.142505 25.5939 -0.00099481 26.0731 5.1903e-06C26.5535 5.1903e-06 26.9564 0.144005 27.282 0.432005C27.6075 0.720005 27.7697 1.07601 27.7685 1.50001V9C27.7685 9.425 27.6058 9.78151 27.2803 10.0695C26.9547 10.3575 26.5524 10.501 26.0731 10.5H17.5961C17.1157 10.5 16.7127 10.356 16.3872 10.068C16.0617 9.78 15.8995 9.424 15.9006 9C15.9006 8.575 16.0634 8.2185 16.3889 7.9305C16.7144 7.6425 17.1168 7.49901 17.5961 7.50001H23.0214C22.1172 6.10001 20.8806 5.00001 19.3118 4.20001C17.743 3.40001 16.0408 3.00001 14.2052 3.00001C11.3795 3.00001 8.9777 3.87501 6.99971 5.62501C5.02173 7.37501 4.03274 9.50001 4.03274 12C4.03274 14.5 5.02173 16.625 6.99971 18.375C8.9777 20.125 11.3795 21 14.2052 21C16.1267 21 17.886 20.5685 19.4831 19.7055C21.0801 18.8425 22.3161 17.6865 23.1909 16.2375C23.417 15.8875 23.7352 15.644 24.1454 15.507C24.5557 15.37 24.9722 15.3635 25.395 15.4875C25.8471 15.6125 26.172 15.875 26.3698 16.275C26.5676 16.675 26.5535 17.05 26.3274 17.4C25.1689 19.4 23.5159 21 21.3684 22.2C19.2208 23.4 16.8331 24 14.2052 24Z" fill="#27525C"/>
</svg>
