<svg width="140" height="12" viewBox="0 0 140 12" fill="none" xmlns="http://www.w3.org/2000/svg">
<g clip-path="url(#clip0_1_151)">
<path d="M126.885 0.484393C126.968 0.59541 127.107 0.484401 127.201 0.272459C127.318 0.534864 127.418 0.161423 127.463 0.221978C127.624 0.47429 127.729 0.444013 127.902 0.221978C127.946 0.161423 128.157 0.474309 128.307 0.524772H128.419C128.565 0.437313 128.721 0.406382 128.874 0.433943L129.641 0.686255L129.802 0.454117C129.818 0.441308 129.835 0.434682 129.852 0.434682C129.87 0.434682 129.887 0.441308 129.902 0.454117C130.078 0.60907 130.265 0.71782 130.458 0.777084H130.608C130.753 0.595419 130.858 0.777082 130.836 1.08995L131.131 0.676153L131.375 0.333011C131.607 0.492154 131.859 0.534003 132.103 0.454117C132.264 0.353191 132.748 0.807341 132.92 0.787156C133.233 0.859849 133.541 0.981426 133.842 1.1505V0.766982C133.88 0.719576 133.925 0.694844 133.97 0.696327L134.193 0.958742C134.419 0.866055 134.657 0.904868 134.871 1.06975C134.965 1.21104 135.321 0.908269 135.426 0.978916C135.604 1.10093 135.796 1.12895 135.982 1.05967C136.35 0.971402 136.723 0.954467 137.094 1.00919L137.41 1.24133C137.51 1.32207 137.705 1.08995 137.866 1.05967H137.983C138.096 1.12818 138.219 1.12818 138.333 1.05967L138.622 1.48354C138.966 1.26151 139.289 1.30188 139.339 1.58447C139.389 1.86706 139.661 2.52308 139.733 2.5029C139.805 2.48271 139.989 2.5029 140 2.57355C140.011 2.6442 139.933 2.93688 139.817 3.0479C139.7 3.15892 139.694 4.05715 139.511 4.50122L139.572 5.07647V5.20768C139.572 5.40953 139.522 5.53065 139.472 5.4701C139.439 5.43035 139.398 5.41552 139.359 5.42867C139.319 5.44183 139.284 5.48196 139.261 5.54075C139.578 5.77288 139.205 6.1564 139.355 6.4289C139.365 6.45038 139.37 6.47706 139.37 6.50457C139.37 6.53209 139.365 6.5588 139.355 6.58028L139.116 6.9638C139.116 7.25648 138.85 7.56933 138.561 7.67026L138.288 7.29684L138.244 7.23629C138.041 7.37964 137.827 7.46806 137.61 7.4987C137.438 7.4987 136.866 7.42805 136.704 7.4987H136.41C136.278 7.45041 136.144 7.4167 136.01 7.39777C135.875 7.37773 135.739 7.37773 135.604 7.39777C135.263 7.45905 134.919 7.48599 134.576 7.4785C134.176 7.4785 132.909 7.47852 132.703 7.40787C132.398 7.45517 132.097 7.55657 131.803 7.71064H131.753H131.453C131.167 7.6115 130.875 7.59449 130.586 7.66019C130.436 7.73083 129.947 7.51888 129.825 7.54915C129.584 7.59506 129.342 7.59506 129.102 7.54915C128.952 7.4886 128.224 7.6198 127.868 7.63998H126.568C126.362 7.63998 126.051 7.751 125.984 7.63998C125.84 7.31702 125.64 7.77118 125.534 7.4785C125.534 7.42804 125.39 7.42804 125.323 7.4785C125.256 7.52896 124.951 7.70055 124.89 7.61981L124.673 7.32712C124.604 7.42497 124.524 7.49602 124.439 7.53594C124.354 7.57586 124.265 7.58381 124.178 7.55926C124.067 7.47852 123.828 7.43814 123.7 7.3675C123.573 7.29685 123.145 7.56934 123.056 7.45832C122.967 7.34731 122.55 7.72072 122.428 7.76109C122.147 7.66766 121.871 7.53952 121.6 7.37757L121.35 7.65008L121.177 7.85192C120.919 7.79141 120.663 7.70039 120.41 7.57943C120.228 7.495 120.042 7.43095 119.855 7.38767C119.451 7.51488 119.057 7.73183 118.682 8.0336L118.465 7.4785C118.431 7.45095 118.394 7.43673 118.357 7.43673C118.32 7.43673 118.283 7.45095 118.249 7.4785C118.01 7.82164 117.737 7.24639 117.493 7.55926C117.39 7.66401 117.271 7.70643 117.154 7.68036C116.952 7.59769 116.748 7.53369 116.543 7.4886H116.359C116.179 7.58523 115.991 7.63283 115.803 7.62988C115.6 7.62116 115.397 7.58064 115.198 7.50877C115.098 7.42803 114.731 7.73083 114.609 7.81157C114.486 7.89231 114.158 7.54915 114.053 7.63998C113.765 7.7085 113.474 7.7085 113.186 7.63998H112.958C112.769 7.63998 112.58 7.75101 112.402 7.74091H112.052C111.592 7.65575 111.131 7.61532 110.668 7.61981L110.352 7.78129L110.074 7.92257C109.707 7.80018 109.335 7.74607 108.962 7.76109H105.956C105.656 7.76109 105.35 7.76109 105.05 7.76109H104.867L104.428 7.93267C104.389 7.93267 104.111 7.87212 103.872 7.81157C103.633 7.75101 102.371 7.91249 102.277 7.81157C102.131 7.77597 101.985 7.75576 101.838 7.75102C101.743 7.75102 101.282 7.90239 101.038 7.92257H97.1475L95.5136 8.00333C94.5727 8.05565 93.634 8.20052 92.7016 8.4373L92.6294 8.33637L92.4405 8.09416C92.3539 8.17086 92.2589 8.2107 92.1626 8.2107C92.0663 8.2107 91.9713 8.17086 91.8847 8.09416L91.6513 8.36664C91.529 8.50794 91.2678 8.36664 91.0678 8.36664H90.7288C90.4184 8.35315 90.108 8.38691 89.8007 8.46758C89.5047 8.46434 89.2126 8.34378 88.9449 8.11433L88.8338 8.38682L88.667 8.77034C88.5097 8.544 88.3115 8.43243 88.1113 8.45747C87.8049 8.51917 87.497 8.55286 87.1888 8.5584C86.8692 8.61188 86.5483 8.63546 86.2274 8.62906H85.9939H85.7439C85.4862 8.63577 85.2294 8.68645 84.977 8.78044C84.7088 8.8361 84.4432 8.92716 84.1823 9.05293L83.9155 8.90155C83.6686 8.83524 83.4177 8.83524 83.1708 8.90155H82.9208C82.6626 8.90421 82.4061 8.97561 82.1594 9.11348H81.9038C81.4622 8.96632 81.0124 8.91888 80.5645 8.9722C79.7737 8.99465 78.9868 9.18087 78.2193 9.52728L78.0414 9.19424C77.997 9.12359 77.758 9.31534 77.608 9.34562H77.4579C77.2626 9.32794 77.0723 9.22771 76.9022 9.05293C76.7632 8.89145 76.2464 9.31534 76.0797 9.31534C75.913 9.31534 75.3461 9.31534 75.1794 9.31534C74.8633 9.32896 74.5478 9.37616 74.2347 9.45665H74.0624C73.9012 9.45665 73.7345 9.32542 73.5733 9.33552H73.2621C72.9231 9.33552 72.4063 9.33552 72.1062 9.33552C71.8061 9.33552 70.928 9.57776 70.7447 9.51721H70.5779H70.339C70.099 9.5686 69.8565 9.5686 69.6165 9.51721C69.3575 9.59151 69.1013 9.69601 68.8496 9.83007C68.6718 9.83007 68.0105 9.83007 67.8048 9.83007C67.5992 9.83007 66.6934 9.83007 66.2766 9.89062C65.8598 9.95118 64.3482 10.0218 63.9092 10.0319C63.4701 10.042 62.242 10.0319 62.1419 10.153C62.0419 10.2741 61.6418 10.0319 61.5251 10.0016C61.4084 9.97135 60.9693 10.264 60.7582 10.2842C60.547 10.3044 59.7023 10.2842 59.3577 10.2842C59.0132 10.2842 57.835 10.2842 57.5016 10.2842C57.1681 10.2842 55.7454 10.4053 55.0841 10.4053H52.2721L52.1388 10.6173C52.0054 10.809 51.8942 10.1833 51.7164 10.6173L51.6831 10.698C51.5089 10.6474 51.3309 10.6647 51.1607 10.7485C51.0384 10.8292 50.5716 10.5365 50.2882 10.6476H48.0652C45.9146 10.6476 43.9306 10.5668 43.6583 10.476L43.4471 10.809L43.4193 10.8595L42.9358 10.7989C42.715 10.7339 42.4898 10.7339 42.2689 10.7989C42.2134 10.8797 41.9689 10.698 41.9022 10.7989C41.7189 10.8582 41.5324 10.8785 41.3464 10.8595H41.202L40.524 10.9302H40.3739C40.2469 10.9533 40.1193 10.8963 40.0127 10.7687C39.9849 10.6778 39.6737 10.8696 39.5348 10.8696H39.3958C39.3347 10.8696 39.2458 10.7182 39.2124 10.7485L38.7012 11.1724C38.1065 11.0513 37.1229 10.9604 36.5171 10.9604H34.5999C34.2828 10.9797 33.9654 10.9628 33.6496 10.9099C33.2909 11.0227 32.9404 11.2089 32.6048 11.4651L32.4269 11.0109C32.3945 10.985 32.3595 10.9717 32.3241 10.9717C32.2887 10.9717 32.2537 10.985 32.2213 11.0109L31.9712 11.2733C31.6306 11.1573 31.2828 11.1268 30.9376 11.1825H30.6764C30.3763 11.1825 30.0762 11.1825 29.7761 11.1825H26.0416C25.7184 11.1881 25.3953 11.1544 25.0746 11.0815C24.8467 11.021 24.191 11.3439 24.1132 11.2935C23.7986 11.2048 23.4812 11.1542 23.1629 11.1421C22.8072 11.1421 21.7791 11.3742 21.6569 11.3641C21.4532 11.3708 21.2499 11.3335 21.0511 11.2531C20.9566 11.1522 20.5454 11.4045 20.4287 11.4348C20.2101 11.3659 19.9891 11.3255 19.7674 11.3137C19.6173 11.3742 19.0894 11.4247 18.9449 11.4651C18.8004 11.5054 18.3336 11.2733 18.228 11.3137C17.9289 11.3684 17.6284 11.3953 17.3277 11.3944C17.0498 11.3944 15.9273 11.3439 15.4438 11.2632L15.027 11.6164L14.9547 11.6871C14.7372 11.6398 14.5179 11.623 14.299 11.6366L14.1434 11.4953L13.8877 11.2733C13.6929 11.458 13.4732 11.5385 13.2542 11.5054L13.0708 11.6063L12.8707 11.7073C12.647 11.6732 12.4221 11.6732 12.1983 11.7073C12.0872 11.7073 11.2813 11.4247 10.5922 11.3439L10.0365 11.8385L9.83087 12.0201C9.60395 11.9359 9.37333 11.8886 9.14177 11.8788C8.99172 11.8788 8.46933 11.8788 8.31928 11.8788C8.16924 11.8788 7.82468 11.7678 7.76355 11.8082C7.56383 11.8382 7.36309 11.8382 7.16337 11.8082C6.96886 11.8082 6.32976 11.8082 6.1686 11.7577C6.00744 11.7073 5.53507 11.7577 5.40169 11.7577C5.26831 11.7577 4.96267 12.0101 4.92377 11.9495C4.88487 11.889 4.70146 11.7376 4.65145 11.8183C4.48745 11.9575 4.30993 12.0363 4.12908 12.0504H3.01761C2.95092 11.8687 2.87311 11.7174 2.84532 11.7174C2.81753 11.7174 2.73418 11.7981 2.72862 11.899C2.51086 11.9873 2.28506 11.9873 2.0673 11.899H1.64495C1.42822 11.899 1.27816 11.899 1.32262 11.8486C1.36708 11.7981 1.43933 11.6467 1.3782 11.5155C1.30994 11.2693 1.28473 10.9911 1.30595 10.7182C1.30595 10.5567 1.35596 10.0723 1.26704 10.0723C1.17812 10.0723 0.978067 10.1228 0.994739 10.1833C1.01141 10.2439 0.994739 10.4255 0.994739 10.4457C0.896304 10.4241 0.803535 10.3504 0.727981 10.2338C0.650179 10.1227 0.255609 9.87044 0.172249 9.73924C0.0888894 9.60804 -0.0500409 9.07313 0.105564 9.01258C0.261169 8.95202 0.433445 9.6484 0.539034 9.78969H0.666859C0.711317 9.78969 0.766897 9.67867 0.794683 9.59793C0.781272 9.55949 0.762154 9.52868 0.739548 9.50904C0.716941 9.48941 0.691755 9.48176 0.666859 9.48693C0.627958 9.48693 0.505692 9.48691 0.505692 9.40617C0.528527 9.28942 0.566036 9.18392 0.615234 9.09808C0.664431 9.01224 0.723969 8.94842 0.789121 8.91165C0.939168 8.841 1.38376 8.53823 1.38376 8.40702C1.38376 8.27582 1.43933 7.85194 1.50602 8.00333C1.57271 8.15472 1.83389 8.39693 1.94504 8.21526L1.97838 8.04368C2.02839 7.81155 2.05619 7.86203 2.16178 7.97305L2.22846 8.04368H2.88979C3.17057 8.0085 3.4446 7.87122 3.69561 7.63998C3.64003 7.63998 3.82898 7.3473 4.25134 7.16563L4.69592 7.45832C4.77979 7.51869 4.86757 7.55938 4.95711 7.57943H5.0238C5.13494 7.51887 5.16829 7.36748 5.10161 7.22618C5.03492 7.08489 4.92932 6.71148 5.00712 6.67111H5.07381C5.14605 6.67111 5.24609 6.83258 5.28499 6.79221L5.53508 6.58028C5.64947 6.78158 5.78078 6.9485 5.92408 7.0748C5.98521 7.0748 6.2353 7.07482 6.17417 6.9638C6.11303 6.85278 6.17415 6.63073 6.30197 6.46925C6.51381 6.31714 6.74151 6.25166 6.96886 6.27749C7.05222 6.27749 7.39677 6.27749 7.52459 6.27749C7.74924 6.26937 7.97392 6.2896 8.19702 6.33804C8.37486 6.42887 8.71942 5.85361 8.81389 5.87379C8.90837 5.89398 9.08619 6.21694 9.10287 6.25731C9.11954 6.29768 9.19178 6.33805 9.21957 6.25731V5.5811C9.51569 5.67375 9.80608 5.81914 10.0865 6.0151L10.3199 5.81324L10.5311 5.62148C10.7851 5.58222 11.0364 5.49771 11.2813 5.36917C11.4036 5.27833 11.6926 5.64165 11.7537 5.61138V5.55082L11.7815 5.44992C11.914 5.43011 12.0473 5.45058 12.1761 5.51048H12.5206C12.7318 5.42974 12.9819 5.3288 13.0763 5.30861C13.1708 5.28843 13.5487 5.23796 13.7155 5.20768C14.0258 5.15542 14.3376 5.13858 14.6491 5.15723C14.9619 5.09554 15.272 4.99436 15.5771 4.85444C15.8287 4.88815 16.0814 4.88815 16.3329 4.85444C16.4163 4.76361 16.7386 4.95536 16.8164 4.85444C16.8942 4.75351 17.1665 4.94527 17.2166 4.85444C17.2666 4.76361 17.4444 4.65259 17.5 4.73333C17.6164 4.86567 17.7517 4.9324 17.889 4.92509C18.1039 4.86306 18.3217 4.83939 18.5392 4.85444C18.7004 4.85444 19.1727 4.79388 19.2894 4.85444C19.4763 4.84446 19.6623 4.80394 19.8452 4.73333C19.9285 4.67278 20.2842 4.59206 20.4454 4.5315C20.7031 4.59904 20.9541 4.73506 21.19 4.93519C21.2956 4.99575 21.4179 4.52139 21.4735 4.48102H21.5012L21.7347 4.66271C21.8968 4.58127 22.0564 4.48355 22.2126 4.37002C22.346 4.44066 22.496 4.61222 22.6016 4.57185L22.7294 4.5113C22.8345 4.56912 22.9467 4.56912 23.0517 4.5113C23.2268 4.45758 23.4066 4.48538 23.5741 4.59205H23.7075H23.802C23.9076 4.59205 24.1132 4.51131 24.2577 4.49112C24.5621 4.4699 24.8659 4.55557 25.1524 4.74343L25.3747 4.44067C25.5025 4.27919 25.7637 4.55169 25.9304 4.27919C25.9304 4.27919 26.0694 4.3801 26.1416 4.42047L26.4751 4.56178C26.756 4.52274 27.0328 4.41407 27.2975 4.23881C27.3809 4.13788 27.6865 4.30946 27.7532 4.23881C27.8199 4.16816 28.0811 4.42047 28.1256 4.45074C28.17 4.48102 28.3701 4.45075 28.5201 4.55167C28.8464 4.50558 29.171 4.42808 29.4927 4.31954L29.6872 4.61223H29.7205C29.7696 4.6217 29.8193 4.61221 29.8662 4.58438C29.9131 4.55655 29.9563 4.511 29.9928 4.45074C30.1002 4.31631 30.2244 4.23303 30.3541 4.20853C30.6743 4.20783 30.994 4.25507 31.3099 4.34981L31.5489 3.9865C31.6045 3.89566 31.8045 4.03696 31.9101 3.9865L32.1435 3.82501C32.3066 3.97244 32.4781 4.08749 32.6548 4.16815C32.8211 4.13704 32.9887 4.13704 33.1549 4.16815L33.255 4.24891C33.3828 4.35993 33.4439 3.82502 33.6107 4.17826C33.6107 4.17826 33.7996 4.03695 33.8941 4.03695H34.0441L34.4165 4.19843C34.4665 4.19843 34.7999 4.19843 35 4.19843C35.2 4.19843 35.7224 3.87547 35.778 3.91584C35.9375 4.04331 36.0917 4.19173 36.2393 4.35991L36.3782 4.01677L36.5949 3.50204C36.8813 3.70458 37.1746 3.87314 37.473 4.00667C37.7793 3.99744 38.083 3.90211 38.3733 3.72408C38.5067 3.63325 38.879 3.63326 39.0124 3.5727L39.1013 3.67363L39.1958 3.77456C39.2438 3.85328 39.3061 3.89687 39.3708 3.89687C39.4355 3.89687 39.4979 3.85328 39.5459 3.77456L39.6348 3.64335C39.7108 3.6221 39.7884 3.6546 39.8515 3.73418C39.9127 3.81492 40.1572 3.96633 40.2239 3.87549C40.4724 3.80359 40.7256 3.80359 40.9741 3.87549C41.0852 3.92596 41.352 3.87547 41.4576 3.94612C41.6063 3.94253 41.7548 3.9223 41.9022 3.88557C42.0913 3.89353 42.2796 3.8388 42.4579 3.72408C42.5746 3.62316 43.0692 3.93604 43.2971 3.9966L43.4471 3.66353C43.4471 3.66353 43.5471 3.66353 43.5916 3.66353L43.8973 3.73418C44.1965 3.81177 44.5013 3.77396 44.792 3.62318C44.9476 3.48189 45.5311 3.85528 45.7256 3.84519L45.8868 3.78463L46.0368 3.72408C46.2364 3.70467 46.4351 3.66084 46.6314 3.59287C46.8568 3.62482 47.0771 3.73086 47.2817 3.90577H47.3206L47.7596 3.61308C48.2709 3.66354 48.7877 3.68373 48.9155 3.68373C49.1914 3.67759 49.4652 3.77018 49.7213 3.95622L49.8936 3.50204L49.9714 3.30021C50.1499 3.36974 50.3196 3.49986 50.4716 3.68373C50.5327 3.79475 50.855 3.50205 50.9384 3.47177C51.0217 3.44149 51.3052 3.67362 51.3885 3.6938L51.4274 3.63325L51.6386 3.36077C51.8414 3.52554 52.054 3.64743 52.2721 3.72408C52.4938 3.7188 52.7135 3.6472 52.9223 3.51215C53.0224 3.43141 53.3669 3.60298 53.4225 3.5727C53.5288 3.50654 53.6297 3.41491 53.7226 3.30021C53.7781 3.20938 54.0005 3.36075 54.056 3.24973L54.2228 3.37087L54.4117 3.51215C54.6896 3.43141 55.0619 3.31031 55.2397 3.23966C55.4812 3.24064 55.7225 3.26758 55.9622 3.32039C56.1497 3.31259 56.3368 3.35336 56.5179 3.44149H56.6513H56.7013C56.7791 3.31029 56.8569 3.31029 56.8736 3.44149C56.8903 3.57269 57.0403 3.89566 57.1515 3.79474C57.2626 3.69381 57.6016 3.40114 57.7072 3.33049C57.9824 3.27449 58.2601 3.27449 58.5352 3.33049C58.6408 3.33049 59.002 3.08826 59.141 3.06807C59.3845 3.04874 59.6285 3.07581 59.869 3.14883C60.2131 3.19225 60.5585 3.19225 60.9027 3.14883L61.0972 2.96714L61.2694 2.80566L61.564 3.16901C61.8211 3.18327 62.0779 3.12539 62.3253 2.99742C62.683 2.90771 63.0458 2.90771 63.4035 2.99742C63.6064 3.04354 63.8118 3.04354 64.0147 2.99742C64.2725 2.93169 64.5326 2.90133 64.7928 2.90659C65.0009 2.88655 65.2065 2.81526 65.4041 2.69466C65.4874 2.6341 65.7097 2.85613 65.7375 2.87631C65.8634 2.78426 65.9936 2.71332 66.1265 2.66438C66.2488 2.66438 66.3766 2.80566 66.4933 2.77538H66.66C66.8466 2.75313 67.0322 2.70933 67.2158 2.64421C67.338 2.64421 67.627 2.82587 67.6548 2.73503L67.6937 2.66438L67.7215 2.61393C67.8687 2.59622 68.0165 2.61661 68.1605 2.67448C68.3495 2.73504 69.1942 2.56345 69.3387 2.624L69.4554 2.70476L69.5998 2.81576C69.7419 2.69287 69.9031 2.66431 70.0555 2.73503L70.1556 2.68455L70.3223 2.59372C70.4683 2.42814 70.64 2.35372 70.8113 2.38179C71.0047 2.43666 71.2015 2.43666 71.3949 2.38179C71.5531 2.33627 71.7127 2.30928 71.8728 2.30103C72.0317 2.29521 72.1904 2.32575 72.3452 2.39189C72.4341 2.44236 72.6953 2.34143 72.7286 2.39189C72.8519 2.52758 72.9993 2.571 73.1399 2.513C73.2955 2.44235 74.2013 2.513 74.5181 2.45245C74.8624 2.39191 75.2028 2.27366 75.5351 2.0992L75.6907 2.16986L75.9908 2.29096C76.3464 2.29096 76.7521 2.29096 76.8855 2.29096L77.0189 2.20013L77.1912 2.079C77.3994 2.06976 77.6076 2.09341 77.8136 2.14965C77.9303 2.20011 78.3193 2.09919 78.4193 2.14965H78.5082H78.5971C78.8274 2.16258 79.0578 2.14233 79.2862 2.0891L79.5419 2.01844L79.7586 1.95789L80.2421 1.85699L80.5478 1.95789C80.6812 1.95789 81.1035 2.04874 81.2202 2.0992C81.3369 2.14966 81.6148 2.35151 81.6537 2.25058C81.7424 2.12031 81.8511 2.04278 81.9649 2.02855C82.1475 1.92374 82.333 1.83615 82.5206 1.76613C82.6873 1.76613 83.3598 1.76613 83.6321 1.70558C84.0315 1.71365 84.4303 1.76084 84.8269 1.84689C84.9492 1.84689 85.3048 1.63494 85.3826 1.6854C85.4604 1.73587 85.6161 1.6854 85.6716 1.74596C85.9265 1.71578 86.1794 1.64487 86.4274 1.53402L86.7275 1.58447H86.9443C87.1437 1.43829 87.3634 1.41005 87.5722 1.50375H87.7278H87.889C88.0733 1.40409 88.2715 1.43287 88.4447 1.58447C88.5614 1.72577 89.0671 1.23124 89.3339 1.1505L89.5618 1.41292C89.6084 1.41559 89.6539 1.38681 89.6896 1.33216L89.7285 1.26151C89.7737 1.11942 89.8473 1.01457 89.9341 0.968845C90.1111 1.00021 90.2849 1.0749 90.4509 1.19088C90.5676 1.25144 91.0067 1.19087 91.1122 1.27161C91.261 1.29098 91.4105 1.27402 91.5568 1.22116C91.7674 1.22968 91.9773 1.26677 92.1848 1.33216C92.3404 1.33216 92.9017 1.17067 93.0795 1.23123L93.1518 1.1404C93.3741 0.827532 93.4519 1.35235 93.5964 1.27161L93.7408 1.18078C93.8855 0.997497 94.0476 0.864062 94.2188 0.787156C94.4549 0.778519 94.6909 0.805543 94.9246 0.867913C95.1458 0.923477 95.3702 0.923477 95.5914 0.867913C95.8093 0.839378 96.0282 0.887335 96.2361 1.00919C96.4906 1.05808 96.7478 1.03082 96.9975 0.928466L97.2309 1.07985C97.3204 1.14523 97.4189 1.15799 97.5126 1.11635C97.6063 1.07471 97.6905 0.980781 97.7533 0.847739L98.2312 0.716532C98.7243 0.958755 99.2441 0.958755 99.7372 0.716532C99.9262 0.645884 100.098 1.13032 100.293 0.716532C100.354 0.585329 100.665 0.655977 100.849 0.716532H100.954C101.051 0.800076 101.159 0.834902 101.265 0.817432C101.371 0.7439 101.473 0.656208 101.571 0.555048C101.682 0.44403 101.988 0.84772 102.094 0.827535C102.231 0.763331 102.366 0.685864 102.499 0.595426C102.637 0.655096 102.769 0.757502 102.888 0.89819H102.955C103.055 0.89819 103.161 0.74679 103.266 0.696327L103.45 0.6156L103.894 0.857811C103.985 0.853583 104.074 0.812193 104.155 0.736706C104.222 0.666058 104.461 0.817443 104.516 0.797258H104.561C104.622 0.736703 104.678 0.575232 104.722 0.585324C104.85 0.585324 104.978 0.736696 105.1 0.726603C105.222 0.716511 105.406 0.565121 105.567 0.534843H105.706C105.871 0.582537 106.04 0.56184 106.2 0.47429L106.323 0.625703L106.406 0.726603L107.001 0.817432C107.301 0.75816 107.604 0.731214 107.906 0.736706C108.034 0.827538 108.74 0.736722 109.185 0.847739L109.607 0.565119C109.75 0.479649 109.903 0.479649 110.046 0.565119L110.252 0.726603C110.442 0.625707 110.628 0.49749 110.807 0.343114H110.907C111.017 0.384329 111.123 0.459396 111.219 0.565119L111.274 0.6156C111.522 0.742228 111.778 0.813393 112.036 0.827535C112.477 0.755978 112.914 0.610713 113.342 0.393564C113.378 0.437928 113.411 0.48863 113.442 0.544945C113.603 0.563056 113.766 0.546128 113.925 0.494495C114.216 0.421633 114.509 0.387893 114.803 0.393564C115.068 0.488551 115.328 0.623581 115.581 0.797258C115.709 0.888091 116.137 0.655963 116.209 0.797258C116.281 0.938554 116.765 0.49448 116.959 0.353185L117.187 0.676153L117.287 0.817432C117.631 0.674091 117.98 0.586301 118.332 0.555048H118.582H118.843C119.125 0.666841 119.42 0.610198 119.682 0.393564L119.921 0.706429C120.105 0.938557 120.322 0.262374 120.572 0.595426C120.653 0.709413 120.754 0.76611 120.856 0.75497C120.958 0.74383 121.054 0.665585 121.127 0.534843C121.127 0.534843 121.183 0.534843 121.2 0.534843L121.372 0.645877C121.561 0.645877 121.772 0.746807 121.844 0.777084C122.033 0.730481 122.219 0.652773 122.4 0.544945H122.539H122.828L123.995 0.484393H124.295H124.484C124.69 0.575225 124.94 0.666049 125.04 0.696327C125.189 0.683004 125.337 0.632062 125.479 0.544945C125.562 0.544945 125.818 0.706439 125.89 0.716532L126.046 0.302735C126.296 0.24218 126.801 0.363283 126.885 0.484393Z" fill="#FFB852"/>
</g>
<defs>
<clipPath id="clip0_1_151">
<rect width="140" height="12" fill="white"/>
</clipPath>
</defs>
</svg>
