<svg width="21" height="77" viewBox="0 0 21 77" fill="none" xmlns="http://www.w3.org/2000/svg">
<g clip-path="url(#clip0_1_39)">
<path d="M18.9918 8.62948C18.8757 8.57496 19.0017 8.51081 19.2347 8.47949C18.9566 8.39351 19.3643 8.37381 19.3009 8.34461C19.0357 8.23581 19.0731 8.18217 19.3205 8.11023C19.3878 8.09195 19.0595 7.951 19.0117 7.86634L19.0166 7.807C19.1176 7.73653 19.1579 7.65647 19.135 7.57192L18.8968 7.13973L19.1546 7.07465C19.1692 7.0674 19.1771 7.05889 19.1778 7.04969C19.1786 7.04048 19.1722 7.0308 19.1591 7.02124C18.9997 6.91337 18.8906 6.80367 18.8352 6.69543L18.8419 6.61532C19.0445 6.55457 18.8531 6.48183 18.5143 6.46546L18.9742 6.34555L19.3555 6.24596C19.1941 6.10765 19.1601 5.96957 19.2573 5.84638C19.3734 5.76945 18.9047 5.47038 18.9342 5.38023C18.8696 5.20674 18.7522 5.03099 18.5831 4.85496L18.9971 4.88956C19.05 4.87384 19.0786 4.8522 19.0791 4.82769L18.8057 4.68535C18.9159 4.57261 18.8846 4.44253 18.7161 4.31339C18.5678 4.25021 18.9105 4.08765 18.839 4.0249C18.7152 3.91925 18.6935 3.81383 18.7766 3.72094C18.8883 3.5322 18.9232 3.33483 18.8806 3.13213L18.6442 2.94209C18.5615 2.8814 18.8207 2.7985 18.8606 2.71519L18.8658 2.65288C18.7969 2.58603 18.8024 2.52049 18.8814 2.46599L18.4367 2.27347C18.6918 2.10957 18.6626 1.93386 18.3597 1.88166C18.0569 1.82947 17.3608 1.62491 17.3858 1.58816C17.4109 1.55141 17.3972 1.45169 17.3215 1.43939C17.2457 1.42708 16.9263 1.44219 16.8012 1.49448C16.6761 1.54677 15.7062 1.4687 15.2186 1.52655L14.6003 1.44203L14.4587 1.43019C14.2407 1.41198 14.1078 1.42775 14.1709 1.45991C14.2123 1.48136 14.2265 1.50439 14.2106 1.52418C14.1946 1.54399 14.1497 1.55906 14.0852 1.56628C13.8487 1.37623 13.4181 1.54042 13.1306 1.43573C13.1078 1.42874 13.0793 1.42358 13.0495 1.4211C13.0198 1.41861 12.9908 1.41896 12.9672 1.42207L12.5425 1.51505C12.2265 1.48864 11.8769 1.60283 11.755 1.748L12.146 1.92705L12.2094 1.95626C12.0456 2.05167 11.9406 2.15766 11.8978 2.2708C11.8901 2.36277 11.9409 2.67473 11.8574 2.75439L11.8443 2.91162C11.8905 2.98651 11.9209 3.0609 11.9354 3.13435C11.951 3.20822 11.9449 3.28065 11.9173 3.35092C11.8359 3.52776 11.7915 3.70856 11.7843 3.89248C11.7664 4.10609 11.7099 4.78252 11.777 4.89866C11.7123 5.05713 11.5894 5.20897 11.41 5.35199L11.4077 5.37867L11.3943 5.53888C11.4886 5.70037 11.4939 5.85809 11.4101 6.00627C11.3272 6.08 11.5342 6.3602 11.496 6.42274C11.4358 6.5468 11.425 6.67607 11.4638 6.80842C11.5225 6.89398 11.3484 7.27078 11.3107 7.45884L11.2527 8.15307C11.2435 8.26285 11.1098 8.41897 11.2267 8.46459C11.5689 8.57086 11.0697 8.6367 11.3809 8.71947C11.4354 8.72402 11.429 8.80116 11.3715 8.8322C11.314 8.86325 11.1152 9.01096 11.1996 9.05087L11.5059 9.19297C11.3972 9.22118 11.3169 9.25731 11.27 9.29911C11.2232 9.34092 11.2106 9.38752 11.2332 9.43608C11.3155 9.5027 11.3484 9.6339 11.4189 9.70852C11.4895 9.78313 11.1762 9.987 11.2921 10.0445C11.408 10.102 10.9863 10.2908 10.9373 10.3524C11.0256 10.5106 11.1516 10.6698 11.3144 10.8291L11.009 10.938L10.7834 11.0118C10.8372 11.1553 10.924 11.3003 11.0434 11.4458C11.1264 11.551 11.1872 11.6559 11.2256 11.7597C11.0703 11.9639 10.8185 12.1546 10.476 12.3275L11.0656 12.4932C11.0938 12.5139 11.1075 12.5349 11.1058 12.5548C11.1042 12.5748 11.0872 12.5932 11.0559 12.6089C10.6748 12.7055 11.2837 12.9028 10.935 13.0051C10.8173 13.0507 10.7662 13.1103 10.7891 13.1752C10.8694 13.2904 10.9294 13.4051 10.9689 13.5188L10.9607 13.6167C10.8483 13.7043 10.7886 13.8 10.7834 13.9007C10.7837 14.0101 10.8184 14.1219 10.8871 14.235C10.9698 14.2957 10.6266 14.4642 10.534 14.5221C10.4413 14.5801 10.7972 14.7861 10.6944 14.8343C10.6076 14.9817 10.5946 15.1373 10.6557 15.2971L10.6456 15.4188C10.6371 15.5196 10.5088 15.6105 10.5118 15.7063L10.4962 15.8932C10.5676 16.1464 10.5907 16.3966 10.5652 16.6429L10.3767 16.7974L10.2118 16.933C10.3276 17.1397 10.3694 17.3434 10.3366 17.541L10.2025 19.146C10.1891 19.3062 10.1754 19.4694 10.162 19.6296L10.1539 19.7275L9.94904 19.9464C9.9473 19.9671 10.0003 20.1209 10.055 20.254C10.1097 20.387 9.8791 21.0459 9.98384 21.1055C10.0158 21.1864 10.0311 21.2665 10.0296 21.3453C10.0254 21.3957 9.84142 21.6283 9.80872 21.757L9.63518 23.8338L9.47511 24.6988C9.37665 25.1964 9.17838 25.6844 8.88117 26.1608L8.98691 26.2085L9.23996 26.3312C9.1533 26.3705 9.10604 26.4176 9.10175 26.469C9.09745 26.5204 9.13623 26.5748 9.21517 26.6279L8.91059 26.7279C8.7526 26.7804 8.89348 26.9326 8.88456 27.0394L8.86944 27.2204C8.87016 27.3873 8.81986 27.55 8.71907 27.7067C8.70936 27.8651 8.82648 28.0319 9.06225 28.1955L8.76312 28.2302L8.34164 28.2847C8.57898 28.3891 8.69058 28.5049 8.65461 28.6096C8.57434 28.7676 8.52423 28.9289 8.5045 29.0929C8.43251 29.2587 8.39273 29.4279 8.38533 29.5998L8.37492 29.7244L8.36376 29.8579C8.34502 29.9949 8.27886 30.1274 8.16613 30.2537C8.09407 30.3918 7.98391 30.5254 7.8365 30.6534L7.98803 30.8094C8.0486 30.9472 8.03741 31.0812 7.95481 31.207L7.94366 31.3405C7.92927 31.478 7.84074 31.6085 7.6809 31.7278L7.66949 31.8643C7.80866 32.1133 7.83981 32.3577 7.76227 32.592C7.70276 33.0122 7.46662 33.4154 7.0584 33.7939L7.41001 33.9189C7.48429 33.949 7.26663 34.0593 7.22725 34.1367L7.22055 34.2168C7.23093 34.3226 7.33064 34.4333 7.51174 34.5399C7.67987 34.6286 7.19919 34.8663 7.19175 34.9553C7.18432 35.0443 7.15903 35.3469 7.15159 35.4359C7.12279 35.6034 7.05776 35.7676 6.95689 35.9275L6.94921 36.0195C6.94202 36.1055 7.07625 36.2064 7.05817 36.2915L7.04428 36.4576C7.02916 36.6386 7.00611 36.9145 6.99272 37.0747C6.97933 37.2349 6.67864 37.6818 6.73583 37.7852L6.7284 37.8742L6.71774 38.0018C6.65154 38.1252 6.64073 38.2547 6.68551 38.3874C6.59374 38.5191 6.46949 38.6464 6.31354 38.7686C6.3056 38.8636 6.2761 39.2166 6.26693 39.3264C6.25776 39.4362 6.21735 39.9198 6.13338 40.1368C6.04942 40.3539 5.90573 41.1545 5.87525 41.3879C5.84477 41.6214 5.80088 42.278 5.66567 42.3204C5.53047 42.3629 5.7741 42.5984 5.80158 42.6634C5.82906 42.7284 5.49351 42.9364 5.4623 43.0473C5.43109 43.1582 5.41519 43.611 5.39982 43.795C5.38445 43.9789 5.3319 44.6079 5.31702 44.7859C5.30215 44.9639 5.10794 45.7125 5.07844 46.0655L4.95299 47.5667L4.71821 47.6188C4.50525 47.6727 5.17582 47.7885 4.69937 47.8443L4.61073 47.8548C4.65756 47.9523 4.63102 48.0458 4.53293 48.1291C4.44031 48.1871 4.73547 48.4627 4.60297 48.604L4.50381 49.7907C4.40787 50.9389 4.40654 52.0053 4.49245 52.1589L4.12346 52.2416L4.06776 52.2518L4.11156 52.5154C4.17189 52.6392 4.16185 52.7594 4.08181 52.8714C3.99217 52.8938 4.17738 53.0407 4.06545 53.0672C3.9933 53.1598 3.96304 53.2575 3.97529 53.3584L3.96884 53.4356L3.86232 53.7912L3.85562 53.8713C3.82498 53.937 3.88086 54.0103 4.01384 54.0787C4.11066 54.1017 3.88976 54.2505 3.88356 54.3247L3.87736 54.3989C3.87464 54.4315 4.0341 54.4927 3.99992 54.5077L3.51952 54.7424C3.62374 55.0708 3.67791 55.6041 3.65089 55.9275L3.56536 56.951C3.53043 57.1186 3.53449 57.2895 3.57746 57.4629C3.43973 57.6442 3.22304 57.8145 2.93158 57.9706L3.41396 58.1065C3.44042 58.1261 3.45325 58.146 3.45167 58.1649C3.45009 58.1838 3.43414 58.2013 3.40479 58.2163L3.11034 58.3261C3.22033 58.5184 3.23781 58.7069 3.16228 58.8861L3.15063 59.0256C3.13724 59.1858 3.12386 59.346 3.11047 59.5062L2.94387 61.4999C2.92332 61.6719 2.94532 61.8474 3.0097 62.0252C3.06491 62.1523 2.687 62.4732 2.73801 62.5193C2.8197 62.6953 2.86013 62.8693 2.85905 63.0403C2.84318 63.2302 2.54672 63.7581 2.55216 63.8243C2.53588 63.9324 2.56703 64.0443 2.64497 64.1577C2.74971 64.2172 2.45899 64.414 2.42109 64.4736C2.48568 64.5965 2.51951 64.7181 2.52233 64.8376C2.45026 64.9122 2.37224 65.1895 2.32221 65.263C2.27219 65.3365 2.50195 65.6066 2.45366 65.6593C2.38123 65.8141 2.33875 65.9721 2.32635 66.1327C2.31395 66.281 2.31836 66.8849 2.38396 67.1503L1.98401 67.3409L1.90451 67.3731C1.94581 67.4935 1.95426 67.6121 1.92975 67.7277L2.07533 67.8236L2.30363 67.9801C2.09558 68.0674 1.99887 68.1774 2.02476 68.2973L1.90765 68.3861L1.78976 68.4838C1.81652 68.6064 1.80648 68.7264 1.75977 68.8428C1.75481 68.9022 2.02392 69.3578 2.08035 69.733L1.52168 69.9851L1.3164 70.0785C1.39724 70.2072 1.43798 70.3346 1.43818 70.4591C1.43148 70.5392 1.40818 70.8181 1.40149 70.8982C1.39479 70.9783 1.49928 71.1722 1.45297 71.2012C1.41172 71.3051 1.40276 71.4123 1.4262 71.5216C1.41752 71.6255 1.389 71.9667 1.43628 72.0572C1.48357 72.1478 1.40802 72.3955 1.40207 72.4667C1.39612 72.5379 1.1101 72.6783 1.17373 72.7045C1.23737 72.7307 1.39263 72.8423 1.30323 72.8617C1.14567 72.9367 1.0526 73.0244 1.02935 73.1196L0.979772 73.713C1.17292 73.765 1.33287 73.8202 1.33163 73.835C1.33039 73.8499 1.23951 73.8871 1.13031 73.8809C1.02525 73.9892 1.01518 74.1098 1.10081 74.234L1.08196 74.4595C1.0723 74.5752 1.06559 74.6553 1.12205 74.6361C1.17851 74.6169 1.34519 74.592 1.4841 74.6365C1.74684 74.6951 2.04601 74.7337 2.34161 74.747C2.51594 74.7615 3.04117 74.7785 3.0372 74.826C3.03324 74.8735 2.96982 74.9757 2.90519 74.9614C2.84056 74.947 2.64372 74.9395 2.62193 74.9377C2.64088 74.9922 2.7163 75.0484 2.83882 75.0992C2.9552 75.1508 3.20998 75.3842 3.3479 75.4405C3.48583 75.4968 4.0571 75.6193 4.12941 75.5417C4.20173 75.4641 3.45763 75.3093 3.3098 75.2401L3.31551 75.1719C3.31749 75.1482 3.43982 75.1285 3.52823 75.121C3.56913 75.1316 3.60154 75.1446 3.62173 75.1584C3.64192 75.1723 3.64905 75.1864 3.64236 75.1992C3.64062 75.22 3.63519 75.2853 3.72235 75.2925C3.84942 75.2909 3.96498 75.2804 4.05985 75.2619C4.15471 75.2433 4.22627 75.2173 4.26887 75.1858C4.35183 75.1121 4.69853 74.9021 4.84017 74.9139C4.98182 74.9258 5.4419 74.9343 5.28145 74.8851C5.12099 74.8358 4.87115 74.6745 5.07223 74.6316L5.25896 74.6293C5.51179 74.6235 5.45853 74.6041 5.34339 74.5377L5.27012 74.4957L5.29962 74.1427C5.35011 73.996 5.51054 73.8621 5.77138 73.7489C5.7689 73.7786 6.0933 73.7041 6.30827 73.495L6.01212 73.2313C5.95069 73.1811 5.91067 73.1305 5.89303 73.0809L5.896 73.0453C5.96633 72.9915 6.13126 72.9873 6.28083 73.0357C6.43039 73.084 6.8288 73.1741 6.87585 73.1362L6.87883 73.1006C6.88205 73.062 6.71219 72.994 6.75751 72.9769L6.99746 72.8625C6.78525 72.7833 6.6109 72.6981 6.48094 72.6102C6.48367 72.5776 6.49481 72.4441 6.61194 72.4867C6.72906 72.5294 6.97151 72.5168 7.15154 72.4631C7.32521 72.3638 7.40605 72.2481 7.38831 72.1244C7.39203 72.0799 7.4074 71.896 7.4131 71.8277C7.43189 71.7085 7.42007 71.5868 7.37773 71.4633C7.2876 71.3601 7.92401 71.2281 7.90643 71.1758C7.88886 71.1236 7.54813 70.9995 7.50529 70.987C7.46245 70.9744 7.42209 70.9322 7.51049 70.9247L8.24051 70.9857C8.1537 70.8192 8.0097 70.6511 7.81065 70.4837L8.03899 70.3773L8.25543 70.2819C8.30914 70.1498 8.41158 70.0233 8.56129 69.9041C8.6648 69.847 8.28546 69.66 8.32088 69.6301L8.38625 69.6355L8.49642 69.6298C8.52371 69.5609 8.50757 69.4878 8.44865 69.4137L8.46402 69.2298C8.5606 69.1243 8.68073 68.9999 8.70673 68.9513C8.73274 68.9027 8.80408 68.7055 8.8442 68.6192C8.91446 68.4583 8.94656 68.2933 8.94032 68.1253C9.02087 67.9639 9.14394 67.8075 9.30861 67.6572C9.28343 67.5199 9.2947 67.385 9.34232 67.2537C9.4441 67.2174 9.25146 67.028 9.36389 66.9956C9.47632 66.9632 9.28145 66.8005 9.38174 66.782C9.48203 66.7635 9.60981 66.6786 9.52513 66.6416C9.38745 66.5675 9.32145 66.4893 9.33546 66.4166C9.41202 66.3075 9.44728 66.1934 9.44074 66.0759C9.44793 65.9899 9.53438 65.7432 9.47421 65.6754C9.49332 65.5765 9.54537 65.4809 9.62974 65.3896C9.69884 65.3506 9.80185 65.168 9.87441 65.0874C9.813 64.9437 9.67735 64.7975 9.47181 64.6535C9.41115 64.5916 9.92871 64.5691 9.97477 64.5431L9.97601 64.5283L9.79028 64.3873C9.88544 64.3081 9.99805 64.2317 10.1276 64.1586C10.0573 64.081 9.87875 63.9854 9.92704 63.9327L9.99811 63.8699C9.94037 63.8086 9.94538 63.7487 10.0125 63.6978C10.0783 63.6092 10.0563 63.5107 9.94861 63.4117L9.95456 63.3405L9.95878 63.29C9.96349 63.2336 10.0598 63.1312 10.0881 63.0558C10.1246 62.8953 10.0456 62.7253 9.85559 62.5554L10.1924 62.4641C10.3724 62.4104 10.0899 62.2464 10.3915 62.182C10.3915 62.182 10.2887 62.0987 10.2484 62.0565L10.1107 61.8657C10.1654 61.7192 10.295 61.5813 10.4961 61.4558C10.6087 61.4204 10.4372 61.2417 10.5164 61.2125C10.5956 61.1833 10.3349 61.0211 10.3042 60.9946C10.2735 60.9681 10.3151 60.8641 10.2128 60.7749C10.2772 60.6049 10.3753 60.4385 10.5068 60.2766L10.1995 60.1464L10.201 60.1286C10.193 60.1015 10.2054 60.0759 10.2376 60.0533C10.2697 60.0308 10.3208 60.0118 10.3875 59.9978C10.5374 59.9526 10.6329 59.8938 10.6651 59.8268C10.6801 59.6559 10.6434 59.4809 10.5552 59.3037L10.9581 59.2089C11.0586 59.1875 10.915 59.0679 10.9742 59.0161L11.159 58.9061C11.0071 58.8057 10.8905 58.7038 10.8113 58.6022C10.8523 58.5162 10.8598 58.4267 10.8336 58.3351L10.7509 58.2745C10.6368 58.1962 11.217 58.2118 10.8431 58.091C10.8431 58.091 11.004 58.0028 11.0083 57.9524L11.015 57.8723L10.8572 57.6589C10.8595 57.6322 10.8743 57.4542 10.8833 57.3474C10.8922 57.2406 11.2641 56.9909 11.223 56.9576C11.0926 56.8609 10.9392 56.7652 10.7642 56.6713L11.1409 56.6281L11.7062 56.5588C11.5003 56.3876 11.3314 56.2158 11.2006 56.0445C11.2242 55.8818 11.3407 55.7283 11.5458 55.5894C11.6498 55.5264 11.6665 55.3276 11.7378 55.2619L11.6328 55.2053L11.528 55.1457C11.4452 55.113 11.4009 55.0758 11.4038 55.0413C11.4067 55.0067 11.4565 54.9774 11.5437 54.9588L11.6893 54.9232C11.7156 54.8846 11.684 54.8402 11.6009 54.7993C11.5164 54.7594 11.3639 54.6152 11.4649 54.5878C11.5536 54.4616 11.5649 54.3264 11.4984 54.1873C11.4489 54.1234 11.5153 53.9855 11.4437 53.9228C11.4542 53.8437 11.4827 53.7663 11.5289 53.6909C11.5288 53.5892 11.5962 53.4936 11.7281 53.4088C11.8422 53.3556 11.5265 53.0633 11.4713 52.9362L11.8376 52.8862C11.8376 52.8862 11.842 52.8328 11.844 52.809L11.7814 52.6395C11.7109 52.4727 11.7654 52.3134 11.9411 52.1718C12.1006 52.1015 11.7235 51.7563 11.7431 51.6534L11.8156 51.5728L11.8877 51.4982C11.9176 51.3934 11.9738 51.2913 12.0559 51.1926C12.0314 51.0694 11.9268 50.9422 11.7471 50.8172L11.7488 50.7964L12.0844 50.5885C12.0527 50.311 12.054 50.0332 12.0597 49.965C12.0786 49.8183 11.9909 49.6638 11.8015 49.5102L12.2995 49.4592L12.5208 49.4359C12.4537 49.3343 12.3208 49.232 12.1291 49.1343C12.012 49.0917 12.3424 48.946 12.3788 48.9042C12.4152 48.8624 12.1772 48.6902 12.1591 48.6439L12.2262 48.6286L12.5298 48.5404C12.361 48.4173 12.2389 48.2928 12.1659 48.1694C12.1815 48.0516 12.2686 47.9407 12.4237 47.8414C12.5153 47.7953 12.3454 47.5959 12.3806 47.569C12.4568 47.5182 12.5602 47.4726 12.6882 47.4333C12.7887 47.4119 12.6352 47.2795 12.7575 47.2599L12.6342 47.1599L12.4901 47.0463C12.5897 46.9053 12.737 46.7174 12.8212 46.6289C12.8309 46.4998 12.8126 46.3686 12.7663 46.2359C12.7831 46.1365 12.7474 46.0329 12.6603 45.9283L12.6663 45.8571L12.6685 45.8304C12.8136 45.8007 12.8171 45.7591 12.6762 45.7384C12.5353 45.7177 12.1933 45.6084 12.3073 45.5582C12.4212 45.508 12.7523 45.3534 12.8332 45.3034C12.906 45.1616 12.9183 45.0133 12.8702 44.8614C12.8749 44.805 13.1525 44.634 13.1805 44.5617C13.2122 44.4334 13.1939 44.3007 13.1258 44.1657C13.0943 43.9781 13.1097 43.7937 13.1719 43.6139L13.3767 43.5264L13.5587 43.449L13.1796 43.259C13.1757 43.1205 13.2496 42.9886 13.3988 42.868C13.5116 42.6852 13.5278 42.4915 13.4469 42.2925C13.4062 42.18 13.4153 42.0703 13.4742 41.9661C13.5566 41.8345 13.601 41.6984 13.6069 41.559C13.6379 41.4497 13.724 41.3463 13.863 41.2518C13.9321 41.2127 13.7023 41.074 13.6818 41.0573C13.7868 40.9985 13.8692 40.9354 13.9279 40.8688C13.9334 40.8035 13.7866 40.7225 13.8245 40.663L13.8319 40.574C13.8642 40.4764 13.9198 40.3812 13.9983 40.2891C14.0038 40.2239 13.8205 40.0532 13.9198 40.0466L13.9978 40.0322L14.0535 40.0219C14.0792 39.9449 14.0638 39.8641 14.0078 39.782C13.9508 39.6757 14.1737 39.2402 14.1148 39.1576L14.0328 39.0881L13.9194 39.0009C14.0585 38.9362 14.0965 38.8527 14.0269 38.7649L14.0859 38.7161L14.1914 38.6352C14.3767 38.5723 14.4647 38.4873 14.442 38.3933C14.3914 38.2851 14.4002 38.18 14.468 38.0818C14.5242 38.0014 14.5605 37.9186 14.5765 37.8339C14.5899 37.7496 14.564 37.6621 14.4995 37.5735C14.449 37.5215 14.5696 37.3912 14.5166 37.3688C14.3756 37.2908 14.3353 37.2082 14.4042 37.1384C14.4874 37.0617 14.4516 36.5717 14.5311 36.4081C14.6118 36.2297 14.7546 36.0587 14.9578 35.897L14.8885 35.8076L14.7711 35.6364C14.787 35.4466 14.8051 35.23 14.811 35.1588L14.915 35.0958L15.0535 35.0147C15.0727 34.9044 15.0565 34.7911 15.005 34.6761C14.9557 34.6092 15.082 34.4106 15.032 34.3527L15.036 34.3052L15.0399 34.2578C15.0362 34.1337 15.0684 34.0125 15.136 33.8953L15.2237 33.7652L15.2988 33.655L15.4293 33.406L15.334 33.2337C15.3399 33.1625 15.2607 32.9288 15.2114 32.862C15.1621 32.7951 14.9566 32.6286 15.0673 32.6169C15.2119 32.5813 15.3005 32.5303 15.3209 32.4708C15.4422 32.3828 15.545 32.2916 15.629 32.1978C15.6364 32.1088 15.6664 31.7498 15.7439 31.6099C15.753 31.396 15.7199 31.1788 15.6447 30.9593C15.6501 30.894 15.8948 30.7233 15.8438 30.6772C15.7928 30.6311 15.8542 30.5526 15.7913 30.5174C15.8353 30.3841 15.9231 30.2555 16.0539 30.1331L16.0128 29.9683L16.0224 29.8526C16.1891 29.7593 16.2294 29.6446 16.1376 29.5246L16.1445 29.4416L16.1517 29.3555C16.2675 29.2661 16.2453 29.1577 16.0894 29.0516C15.942 28.9765 16.4985 28.7512 16.5975 28.616L16.3244 28.4707C16.3236 28.4456 16.3567 28.4239 16.4173 28.4098L16.4953 28.3954C16.6507 28.3841 16.7672 28.3542 16.8204 28.312C16.7945 28.2147 16.7216 28.1151 16.6038 28.0161C16.5436 27.9483 16.6286 27.7194 16.5461 27.6557C16.5319 27.5746 16.5568 27.4963 16.6204 27.4229C16.6206 27.3098 16.5899 27.1944 16.5286 27.0777C16.5356 26.9946 16.7349 26.7095 16.6775 26.6091L16.7788 26.5788C17.1264 26.4883 16.5633 26.3994 16.657 26.3296L16.7615 26.2606C16.9658 26.1999 17.1171 26.1255 17.2077 26.041C17.2276 25.9157 17.2089 25.7873 17.152 25.6569C17.1019 25.5338 17.1119 25.414 17.1818 25.3009C17.2223 25.1872 17.1803 25.066 17.058 24.944C17.0166 24.8037 17.0575 24.6689 17.1791 24.5448L17.0261 24.4066C16.9595 24.3529 16.9501 24.2992 16.9993 24.2529C17.0484 24.2066 17.1536 24.1702 17.3 24.1486L17.463 23.9053C17.2235 23.6202 17.2466 23.3427 17.5301 23.1013C17.6148 23.0068 17.0995 22.8712 17.5549 22.8047C17.6993 22.7839 17.6369 22.6113 17.5797 22.508L17.5844 22.4516C17.4986 22.3923 17.4658 22.3318 17.4894 22.2764C17.5735 22.2268 17.6727 22.1801 17.7863 22.1369C17.9111 22.0875 17.4889 21.8879 17.5154 21.8334C17.5909 21.7658 17.6805 21.7005 17.7841 21.6378C17.7258 21.5586 17.6212 21.4791 17.4746 21.4028L17.4776 21.3672C17.482 21.3138 17.6502 21.2711 17.7094 21.2192L17.8047 21.1286L17.5631 20.8694C17.5717 20.8212 17.6203 20.7773 17.7054 20.7409C17.7847 20.7117 17.6319 20.5705 17.6562 20.5426L17.6582 20.5189C17.7263 20.4917 17.9031 20.4766 17.8942 20.452C17.8999 20.3837 17.7421 20.3018 17.7585 20.2375C17.7748 20.1731 17.9465 20.0889 17.9863 20.0056L17.9925 19.9314C17.9484 19.8388 17.9783 19.7505 18.08 19.6728L17.922 19.5939L17.8168 19.5403L17.7452 19.2146C17.8226 19.0594 17.8652 18.9004 17.8728 18.7383C17.7804 18.6619 17.91 18.2933 17.8099 18.0459L18.1339 17.846C18.2325 17.7776 18.2394 17.6954 18.1535 17.6116L17.9883 17.4872C18.1057 17.3946 18.2524 17.307 18.4271 17.2252L18.4316 17.1718C18.392 17.1093 18.3156 17.0464 18.2058 16.9856L18.1538 16.9514C18.0281 16.8075 17.9627 16.6646 17.9589 16.5258C18.0559 16.2964 18.2322 16.0762 18.4857 15.8678C18.4394 15.8445 18.3862 15.8221 18.3267 15.8007C18.3144 15.7127 18.3399 15.6276 18.4028 15.5471C18.4944 15.3984 18.5439 15.2448 18.5509 15.0875C18.4602 14.9374 18.326 14.7863 18.1498 14.6357C18.0574 14.5593 18.3271 14.3518 18.1778 14.3005C18.0285 14.2492 18.5295 14.0311 18.6907 13.94L18.3522 13.7892L18.2041 13.7231C18.3742 13.5528 18.4845 13.374 18.534 13.189L18.5451 13.0555L18.5568 12.9161C18.4487 12.7554 18.523 12.6034 18.7686 12.4827L18.4415 12.3268C18.199 12.208 18.9387 12.1533 18.5903 11.9897C18.4709 11.9363 18.4141 11.8772 18.4307 11.8237C18.4473 11.7701 18.5361 11.7256 18.6805 11.6985C18.6805 11.6985 18.683 11.6689 18.6837 11.66L18.5715 11.558C18.58 11.4571 18.4804 11.3353 18.451 11.294C18.5097 11.1974 18.6019 11.1051 18.7264 11.0182L18.7326 10.9441L18.7454 10.7898L18.8629 10.1722L18.8763 10.012L18.8847 9.91114C18.7958 9.79318 18.7089 9.65148 18.6807 9.59534C18.7017 9.51674 18.7633 9.44244 18.8637 9.37461C18.8674 9.33011 18.7045 9.17907 18.6968 9.13959L19.1505 9.09386C19.227 8.96581 19.1188 8.68491 18.9918 8.62948Z" fill="#6FB2A5" fill-opacity="0.5"/>
</g>
<defs>
<clipPath id="clip0_1_39">
<rect width="75" height="13" fill="white" transform="matrix(0.0832717 -0.996527 -0.996527 -0.0832717 13.8545 76.4111)"/>
</clipPath>
</defs>
</svg>
