<svg width="37" height="27" viewBox="0 0 37 27" fill="none" xmlns="http://www.w3.org/2000/svg">
<path d="M6.32782 9.08333L10.2729 17.8403L14.218 9.08333M18.8206 9.08333V17.8403M24.0808 14.8427H26.027C26.8831 14.8427 27.7063 14.4722 28.2902 13.8323C28.7714 13.3064 29.0619 12.6274 29.1134 11.9085C29.1649 11.1896 28.9741 10.4744 28.5729 9.88224C28.4039 9.63563 28.1795 9.43431 27.9186 9.29526C27.6576 9.15622 27.3679 9.08353 27.0738 9.08333H24.0808V14.8427ZM24.0808 14.8427V17.8403M3.69775 1H32.6285C33.326 1 33.995 1.28388 34.4882 1.78918C34.9815 2.29449 35.2586 2.97983 35.2586 3.69444V22.5556C35.2586 23.2702 34.9815 23.9555 34.4882 24.4608C33.995 24.9661 33.326 25.25 32.6285 25.25H3.69775C3.00022 25.25 2.33125 24.9661 1.83802 24.4608C1.34478 23.9555 1.06769 23.2702 1.06769 22.5556V3.69444C1.06769 2.97983 1.34478 2.29449 1.83802 1.78918C2.33125 1.28388 3.00022 1 3.69775 1Z" stroke="#27525C" stroke-width="2" stroke-linecap="round" stroke-linejoin="round"/>
</svg>
